<svg width="24" height="25" viewBox="0 0 24 25" fill="none" xmlns="http://www.w3.org/2000/svg">
<path fill-rule="evenodd" clip-rule="evenodd" d="M12.0006 3.00232C12.2658 3.00232 12.5201 3.10768 12.7077 3.29521C12.8952 3.48275 13.0006 3.7371 13.0006 4.00232V17.5883L18.2936 12.2953C18.4822 12.1132 18.7348 12.0124 18.997 12.0146C19.2592 12.0169 19.51 12.1221 19.6954 12.3075C19.8808 12.4929 19.986 12.7437 19.9882 13.0059C19.9905 13.2681 19.8897 13.5207 19.7076 13.7093L12.7076 20.7093C12.52 20.8968 12.2657 21.0021 12.0006 21.0021C11.7354 21.0021 11.4811 20.8968 11.2936 20.7093L4.29357 13.7093C4.19806 13.6171 4.12188 13.5067 4.06947 13.3847C4.01706 13.2627 3.98947 13.1315 3.98832 12.9987C3.98717 12.8659 4.01247 12.7343 4.06275 12.6114C4.11303 12.4885 4.18728 12.3768 4.28117 12.2829C4.37507 12.189 4.48672 12.1148 4.60962 12.0645C4.73251 12.0142 4.86419 11.9889 4.99697 11.9901C5.12975 11.9912 5.26097 12.0188 5.38297 12.0712C5.50498 12.1236 5.61532 12.1998 5.70757 12.2953L11.0006 17.5883V4.00232C11.0006 3.7371 11.1059 3.48275 11.2935 3.29521C11.481 3.10768 11.7354 3.00232 12.0006 3.00232V3.00232Z" fill="black"/>
</svg>
