<svg width="24" height="50" viewBox="0 0 24 50" fill="none" xmlns="http://www.w3.org/2000/svg">
<g clip-path="url(#clip0)">
<path d="M17.134 7.84961C16.3295 7.84961 15.6547 8.39776 15.458 9.14031H18.8099C18.6132 8.39758 17.9385 7.84961 17.134 7.84961Z" fill="black"/>
<path d="M19.8042 10.209C19.8042 9.81573 19.4853 9.49688 19.0921 9.49688H14.7729C14.675 10.3649 14.3222 11.1566 13.79 11.7947C13.8636 11.8394 13.935 11.8864 14.001 11.9385C14.3425 12.202 14.6088 12.5563 14.7895 12.9887C15.0428 13.6259 15.0759 14.1662 15.1083 14.6889L15.111 14.7311C15.1245 15.0482 15.1301 15.3707 15.1352 15.6834C15.1356 15.6981 15.1358 15.7131 15.1361 15.7279H19.0922C19.4855 15.7279 19.8044 15.409 19.8044 15.0157V14.2146H20.1604H21.2156L18.994 19.2348L18.5055 16.6084C18.4581 16.3547 18.2381 16.1719 17.9803 16.1719H16.0213H15.1448C15.1537 16.5366 15.1687 16.8986 15.2006 17.24H15.6656V18.9349C15.6889 18.9703 15.7127 19.0039 15.7373 19.0349C15.7822 19.0639 15.9237 19.1447 16.1644 19.1982C16.2297 19.2144 16.3018 19.2288 16.3773 19.242V17.24H17.5359L17.9174 19.2916C17.978 19.2854 18.0429 19.2813 18.1079 19.2813C18.6523 19.2813 19.1423 19.5275 19.4697 19.9185L22.0876 14.0026C22.1358 13.8926 22.126 13.7651 22.0607 13.6645C21.9952 13.5639 21.8825 13.5027 21.7621 13.5027H20.1601H19.804V12.123H20.1601H21.4508C21.5458 12.123 21.6352 12.0861 21.7023 12.0186C21.7698 11.9515 21.8063 11.8622 21.8063 11.7671V9.71016C22.4723 9.53338 22.964 8.92791 22.964 8.20618C22.964 7.34595 22.2665 6.64844 21.4062 6.64844C20.546 6.64844 19.8485 7.34595 19.8485 8.20618C19.8485 8.95977 20.3837 9.58821 21.0945 9.73259V11.4107H20.1601H19.804V10.209H19.8042ZM17.8403 12.3564H16.0601C15.6668 12.3564 15.348 12.0375 15.348 11.6443V11.4217C15.348 11.0285 15.6668 10.7096 16.0601 10.7096H17.8403C18.2336 10.7096 18.5525 11.0285 18.5525 11.4217V11.6443C18.5525 12.0375 18.2336 12.3564 17.8403 12.3564Z" fill="black"/>
<path d="M18.5662 22.7791L18.9929 25.073H13.8301V25.3516V26.0224H19.1697L22.0776 41.6539C22.1313 41.944 22.41 42.1353 22.7001 42.0816C22.9905 42.0278 23.1817 41.7487 23.1279 41.4588H23.1276L19.5312 22.125C19.519 22.1414 19.5079 22.1586 19.4951 22.1748C19.2546 22.4746 18.9309 22.6822 18.5662 22.7791Z" fill="black"/>
<path d="M12.0983 11.4444C12.1797 11.4444 12.2612 11.4503 12.346 11.4631C12.4156 11.4548 12.4804 11.451 12.5429 11.451L12.5744 11.4507C12.8742 11.4507 13.1822 11.5156 13.4642 11.6305C14.075 10.9273 14.4456 10.0101 14.4456 9.00545C14.4456 6.79345 12.652 5 10.44 5C8.22802 5 6.43457 6.79345 6.43457 9.00563C6.43457 9.92372 6.74398 10.769 7.26347 11.4444H12.0983Z" fill="black"/>
<path d="M16.316 11.8889C16.5127 11.8889 16.6721 11.7295 16.6721 11.5328C16.6721 11.3362 16.5127 11.1768 16.316 11.1768C16.1194 11.1768 15.96 11.3362 15.96 11.5328C15.96 11.7295 16.1194 11.8889 16.316 11.8889Z" fill="black"/>
<path d="M17.5846 11.8889C17.7812 11.8889 17.9406 11.7295 17.9406 11.5328C17.9406 11.3362 17.7812 11.1768 17.5846 11.1768C17.3879 11.1768 17.2285 11.3362 17.2285 11.5328C17.2285 11.7295 17.3879 11.8889 17.5846 11.8889Z" fill="black"/>
<path d="M17.459 24.4616L18.1752 22.8428C18.0057 22.8574 17.7289 22.8748 17.3816 22.8764L16.8076 24.1734L17.459 24.4616Z" fill="black"/>
<path d="M9.07159 42.7984C9.07159 44.0143 10.0573 44.9993 11.2725 44.9993C12.4881 44.9993 13.4739 44.0143 13.4739 42.7984V25.3516V21.98V21.2995C14.0758 21.8997 14.79 22.156 15.4201 22.3143C16.1373 22.4859 16.8115 22.5185 17.3303 22.5203C17.8599 22.5199 18.224 22.4806 18.2614 22.4765C19.0438 22.3907 19.6078 21.6873 19.5218 20.9054C19.4357 20.1235 18.7317 19.5591 17.9498 19.6455C17.9178 19.6485 17.6675 19.6718 17.3303 19.6718C16.9557 19.6729 16.4686 19.6391 16.0877 19.5453C15.6962 19.4586 15.4744 19.296 15.4736 19.2745C15.2226 18.9684 15.0321 18.4908 14.9246 17.87C14.7564 16.9398 14.7995 15.7924 14.7553 14.7524C14.7225 14.2231 14.6969 13.7197 14.4608 13.1254C14.3385 12.8325 14.1361 12.4914 13.7804 12.2171C13.4288 11.939 12.9462 11.7987 12.5426 11.806C12.4733 11.806 12.4059 11.8126 12.3395 11.8221C12.2613 11.8082 12.1808 11.7998 12.0982 11.7998H5.22014C5.11243 11.7998 5.0081 11.8133 4.90716 11.8368C4.35919 11.9121 3.91822 12.1208 3.46282 12.3715C2.65262 12.8416 1.85541 13.5293 1.19511 14.3962C0.546906 15.2608 0.00944034 16.3244 4.86529e-06 17.5855C-0.000707246 18.029 0.0767348 18.4926 0.243725 18.9405C0.250312 18.9595 0.255297 18.9788 0.262774 18.9978V18.9975C0.619364 19.922 1.34857 20.7183 2.34338 21.3177C2.78489 21.5851 3.28515 21.8206 3.84434 22.0302V25.3515V42.7982C3.84434 44.0141 4.83008 44.9991 6.04529 44.9991C7.26087 44.9991 8.24643 44.0141 8.24643 42.7982V26.7274H9.07159V42.7984ZM2.9177 17.9656C2.91752 17.9653 2.91735 17.9651 2.91735 17.9647C2.86999 17.8412 2.84881 17.7246 2.84809 17.5855C2.84649 17.3393 2.92981 17.0128 3.11959 16.655C3.29103 16.324 3.55219 15.9792 3.84416 15.6733V18.8963C3.83668 18.8919 3.82867 18.8874 3.82137 18.883C3.22053 18.5136 3.01152 18.2003 2.9177 17.9656Z" fill="black"/>
</g>
<defs>
<clipPath id="clip0">
<rect width="23.137" height="50" fill="white"/>
</clipPath>
</defs>
</svg>
