<svg width="50" height="50" viewBox="0 0 50 50" fill="none" xmlns="http://www.w3.org/2000/svg">
<path d="M1 14C0.447754 14 0 13.5522 0 13V1C0 0.447754 0.447754 0 1 0C1.55225 0 2 0.447754 2 1V13C2 13.5522 1.55225 14 1 14Z" fill="white"/>
<path d="M23.5312 14C22.979 14 22.5312 13.5522 22.5312 13V1C22.5312 0.447754 22.979 0 23.5312 0C24.0835 0 24.5312 0.447754 24.5312 1V13C24.5312 13.5522 24.0835 14 23.5312 14Z" fill="white"/>
<path d="M12.2656 14C10.0947 14 8.32812 12.2334 8.32812 10.0625V3.9375C8.32812 1.7666 10.0947 0 12.2656 0C14.4365 0 16.2031 1.7666 16.2031 3.9375V10.0625C16.2031 12.2334 14.4365 14 12.2656 14ZM12.2656 2C11.1973 2 10.3281 2.86914 10.3281 3.9375V10.0625C10.3281 11.1309 11.1973 12 12.2656 12C13.334 12 14.2031 11.1309 14.2031 10.0625V3.9375C14.2031 2.86914 13.334 2 12.2656 2Z" fill="white"/>
<path d="M46.0625 14C43.8916 14 42.125 12.2334 42.125 10.0625V3.9375C42.125 1.7666 43.8916 0 46.0625 0C48.2334 0 50 1.7666 50 3.9375V10.0625C50 12.2334 48.2334 14 46.0625 14ZM46.0625 2C44.9941 2 44.125 2.86914 44.125 3.9375V10.0625C44.125 11.1309 44.9941 12 46.0625 12C47.1309 12 48 11.1309 48 10.0625V3.9375C48 2.86914 47.1309 2 46.0625 2Z" fill="white"/>
<path d="M34.7969 14C32.626 14 30.8594 12.2334 30.8594 10.0625V3.9375C30.8594 1.7666 32.626 0 34.7969 0C36.9678 0 38.7344 1.7666 38.7344 3.9375V10.0625C38.7344 12.2334 36.9678 14 34.7969 14ZM34.7969 2C33.7285 2 32.8594 2.86914 32.8594 3.9375V10.0625C32.8594 11.1309 33.7285 12 34.7969 12C35.8652 12 36.7344 11.1309 36.7344 10.0625V3.9375C36.7344 2.86914 35.8652 2 34.7969 2Z" fill="white"/>
<path d="M49 32C48.4478 32 48 31.5522 48 31V19C48 18.4478 48.4478 18 49 18C49.5522 18 50 18.4478 50 19V31C50 31.5522 49.5522 32 49 32Z" fill="white"/>
<path d="M26.4688 32C25.9165 32 25.4688 31.5522 25.4688 31V19C25.4688 18.4478 25.9165 18 26.4688 18C27.021 18 27.4688 18.4478 27.4688 19V31C27.4688 31.5522 27.021 32 26.4688 32Z" fill="white"/>
<path d="M37.7344 32C35.5635 32 33.7969 30.2334 33.7969 28.0625V21.9375C33.7969 19.7666 35.5635 18 37.7344 18C39.9053 18 41.6719 19.7666 41.6719 21.9375V28.0625C41.6719 30.2334 39.9053 32 37.7344 32ZM37.7344 20C36.666 20 35.7969 20.8691 35.7969 21.9375V28.0625C35.7969 29.1309 36.666 30 37.7344 30C38.8027 30 39.6719 29.1309 39.6719 28.0625V21.9375C39.6719 20.8691 38.8027 20 37.7344 20Z" fill="white"/>
<path d="M3.9375 32C1.7666 32 0 30.2334 0 28.0625V21.9375C0 19.7666 1.7666 18 3.9375 18C6.1084 18 7.875 19.7666 7.875 21.9375V28.0625C7.875 30.2334 6.1084 32 3.9375 32ZM3.9375 20C2.86914 20 2 20.8691 2 21.9375V28.0625C2 29.1309 2.86914 30 3.9375 30C5.00586 30 5.875 29.1309 5.875 28.0625V21.9375C5.875 20.8691 5.00586 20 3.9375 20Z" fill="white"/>
<path d="M15.2031 32C13.0322 32 11.2656 30.2334 11.2656 28.0625V21.9375C11.2656 19.7666 13.0322 18 15.2031 18C17.374 18 19.1406 19.7666 19.1406 21.9375V28.0625C19.1406 30.2334 17.374 32 15.2031 32ZM15.2031 20C14.1348 20 13.2656 20.8691 13.2656 21.9375V28.0625C13.2656 29.1309 14.1348 30 15.2031 30C16.2715 30 17.1406 29.1309 17.1406 28.0625V21.9375C17.1406 20.8691 16.2715 20 15.2031 20Z" fill="white"/>
<path d="M1 50C0.447754 50 0 49.5522 0 49V37C0 36.4478 0.447754 36 1 36C1.55225 36 2 36.4478 2 37V49C2 49.5522 1.55225 50 1 50Z" fill="white"/>
<path d="M23.5312 50C22.979 50 22.5312 49.5522 22.5312 49V37C22.5312 36.4478 22.979 36 23.5312 36C24.0835 36 24.5312 36.4478 24.5312 37V49C24.5312 49.5522 24.0835 50 23.5312 50Z" fill="white"/>
<path d="M12.2656 50C10.0947 50 8.32812 48.2334 8.32812 46.0625V39.9375C8.32812 37.7666 10.0947 36 12.2656 36C14.4365 36 16.2031 37.7666 16.2031 39.9375V46.0625C16.2031 48.2334 14.4365 50 12.2656 50ZM12.2656 38C11.1973 38 10.3281 38.8691 10.3281 39.9375V46.0625C10.3281 47.1309 11.1973 48 12.2656 48C13.334 48 14.2031 47.1309 14.2031 46.0625V39.9375C14.2031 38.8691 13.334 38 12.2656 38Z" fill="white"/>
<path d="M46.0625 50C43.8916 50 42.125 48.2334 42.125 46.0625V39.9375C42.125 37.7666 43.8916 36 46.0625 36C48.2334 36 50 37.7666 50 39.9375V46.0625C50 48.2334 48.2334 50 46.0625 50ZM46.0625 38C44.9941 38 44.125 38.8691 44.125 39.9375V46.0625C44.125 47.1309 44.9941 48 46.0625 48C47.1309 48 48 47.1309 48 46.0625V39.9375C48 38.8691 47.1309 38 46.0625 38Z" fill="white"/>
<path d="M34.7969 50C32.626 50 30.8594 48.2334 30.8594 46.0625V39.9375C30.8594 37.7666 32.626 36 34.7969 36C36.9678 36 38.7344 37.7666 38.7344 39.9375V46.0625C38.7344 48.2334 36.9678 50 34.7969 50ZM34.7969 38C33.7285 38 32.8594 38.8691 32.8594 39.9375V46.0625C32.8594 47.1309 33.7285 48 34.7969 48C35.8652 48 36.7344 47.1309 36.7344 46.0625V39.9375C36.7344 38.8691 35.8652 38 34.7969 38Z" fill="white"/>
</svg>
