<svg width="30" height="28" viewBox="0 0 30 28" fill="none" xmlns="http://www.w3.org/2000/svg">
<path fill-rule="evenodd" clip-rule="evenodd" d="M27.7083 4.31412C27.7215 5.19933 27.6106 6.30912 27.5129 7.1185C27.4819 7.38588 27.4332 7.65091 27.3671 7.91183C28.6154 10.2233 29.1667 13.0043 29.1667 16.042C29.1667 19.6412 27.4356 22.606 24.7392 24.6272C22.0675 26.6295 18.4625 27.7087 14.5833 27.7087C10.7042 27.7087 7.09917 26.6295 4.4275 24.6272C1.73104 22.606 0 19.6412 0 16.042C0 13.0043 0.549792 10.2233 1.80104 7.91183C1.73491 7.65091 1.68619 7.38588 1.65521 7.1185C1.55458 6.30912 1.44375 5.19933 1.45833 4.31412C1.47292 3.31808 1.60417 2.32204 1.74854 1.33329C1.81563 0.87537 1.92063 0.445162 2.41792 0.173912C2.92542 -0.103172 3.45917 -0.00108814 3.98563 0.14912C5.76188 0.652245 7.42729 1.35954 8.99354 2.20537C10.6458 1.711 12.5096 1.4587 14.5833 1.4587C16.6571 1.4587 18.5208 1.711 20.1717 2.20683C21.7599 1.33854 23.4395 0.648918 25.1796 0.150578C25.706 0.000370087 26.2413 -0.103172 26.7473 0.173912C27.2431 0.445162 27.3496 0.87537 27.4181 1.33329C27.561 2.32204 27.6923 3.31808 27.7069 4.31412H27.7083ZM26.25 16.042C26.25 13.5818 25.6842 10.2087 22.6042 10.2087C21.2158 10.2087 19.9019 10.5733 18.5894 10.9379C17.2783 11.3025 15.9688 11.667 14.5833 11.667C13.1979 11.667 11.8883 11.3025 10.5773 10.9379C9.26479 10.5733 7.95229 10.2087 6.5625 10.2087C3.49125 10.2087 2.91667 13.592 2.91667 16.042C2.91667 18.6145 4.12271 20.7539 6.1775 22.2939C8.25417 23.8529 11.2146 24.792 14.5833 24.792C17.9521 24.792 20.911 23.8514 22.9892 22.2939C25.044 20.7525 26.25 18.6145 26.25 16.042ZM11.6667 16.7712C11.6667 18.7837 10.6867 20.417 9.47917 20.417C8.27167 20.417 7.29167 18.7837 7.29167 16.7712C7.29167 14.7587 8.27167 13.1254 9.47917 13.1254C10.6867 13.1254 11.6667 14.7587 11.6667 16.7712ZM19.6875 20.417C20.895 20.417 21.875 18.7837 21.875 16.7712C21.875 14.7587 20.895 13.1254 19.6875 13.1254C18.48 13.1254 17.5 14.7587 17.5 16.7712C17.5 18.7837 18.48 20.417 19.6875 20.417Z" fill="black"/>
</svg>
