<svg width="32" height="32" viewBox="0 0 32 32" fill="none" xmlns="http://www.w3.org/2000/svg">
<path fill-rule="evenodd" clip-rule="evenodd" d="M16 0C7.16344 0 0 7.16344 0 16C0 24.8366 7.16344 32 16 32C24.8366 32 32 24.8366 32 16C32 7.16344 24.8366 0 16 0ZM12.4821 7.51816C13.3924 7.47673 13.6832 7.4666 16.0007 7.4666H15.9981C18.3163 7.4666 18.6061 7.47673 19.5163 7.51816C20.4248 7.55976 21.0452 7.70358 21.5892 7.91461C22.151 8.13239 22.6257 8.42394 23.1004 8.89862C23.575 9.37293 23.8666 9.84903 24.0853 10.4103C24.295 10.9529 24.439 11.573 24.4817 12.4814C24.5226 13.3916 24.5333 13.6825 24.5333 16C24.5333 18.3176 24.5226 18.6077 24.4817 19.5179C24.439 20.426 24.295 21.0463 24.0853 21.5891C23.8666 22.1501 23.575 22.6262 23.1004 23.1005C22.6262 23.5752 22.1508 23.8675 21.5898 24.0854C21.0468 24.2965 20.426 24.4403 19.5176 24.4819C18.6073 24.5233 18.3174 24.5334 15.9997 24.5334C13.6823 24.5334 13.3916 24.5233 12.4814 24.4819C11.5731 24.4403 10.9529 24.2965 10.4099 24.0854C9.84903 23.8675 9.37293 23.5752 8.89879 23.1005C8.4243 22.6262 8.13274 22.1501 7.91461 21.5889C7.70376 21.0463 7.55994 20.4262 7.51816 19.5177C7.47691 18.6075 7.4666 18.3176 7.4666 16C7.4666 13.6825 7.47727 13.3915 7.51798 12.4812C7.55887 11.5731 7.70287 10.9529 7.91443 10.4101C8.1331 9.84903 8.42466 9.37293 8.89933 8.89862C9.37364 8.42412 9.84974 8.13256 10.411 7.91461C10.9536 7.70358 11.5737 7.55976 12.4821 7.51816Z" fill="black"/>
<path fill-rule="evenodd" clip-rule="evenodd" d="M15.235 9.00457C15.3836 9.00434 15.5435 9.00441 15.7161 9.00449L16.0005 9.00457C18.2789 9.00457 18.549 9.01275 19.4487 9.05364C20.2807 9.09169 20.7323 9.23071 21.0331 9.34751C21.4313 9.50218 21.7152 9.68707 22.0137 9.98574C22.3124 10.2844 22.4973 10.5689 22.6523 10.9671C22.7691 11.2675 22.9083 11.7191 22.9462 12.5511C22.9871 13.4507 22.996 13.7209 22.996 15.9982C22.996 18.2756 22.9871 18.5458 22.9462 19.4454C22.9081 20.2774 22.7691 20.729 22.6523 21.0294C22.4976 21.4276 22.3124 21.7112 22.0137 22.0097C21.7151 22.3084 21.4315 22.4932 21.0331 22.6479C20.7326 22.7653 20.2807 22.9039 19.4487 22.942C18.5492 22.9829 18.2789 22.9917 16.0005 22.9917C13.7219 22.9917 13.4519 22.9829 12.5523 22.942C11.7203 22.9036 11.2687 22.7645 10.9677 22.6477C10.5695 22.4931 10.2851 22.3082 9.9864 22.0095C9.68773 21.7108 9.50284 21.4271 9.34782 21.0287C9.23102 20.7283 9.09182 20.2767 9.05395 19.4447C9.01306 18.5451 9.00488 18.2749 9.00488 15.9961C9.00488 13.7173 9.01306 13.4485 9.05395 12.549C9.09199 11.717 9.23102 11.2654 9.34782 10.9646C9.50249 10.5664 9.68773 10.2819 9.9864 9.98325C10.2851 9.68458 10.5695 9.49969 10.9677 9.34467C11.2686 9.22733 11.7203 9.08866 12.5523 9.05044C13.3395 9.01489 13.6446 9.00422 15.235 9.00244V9.00457ZM20.5556 10.4215C19.9902 10.4215 19.5316 10.8796 19.5316 11.4452C19.5316 12.0105 19.9902 12.4692 20.5556 12.4692C21.1209 12.4692 21.5796 12.0105 21.5796 11.4452C21.5796 10.8798 21.1209 10.4212 20.5556 10.4212V10.4215ZM11.6183 16.0002C11.6183 13.5801 13.5803 11.618 16.0004 11.6179C18.4205 11.6179 20.3821 13.5801 20.3821 16.0002C20.3821 18.4203 18.4207 20.3816 16.0006 20.3816C13.5804 20.3816 11.6183 18.4203 11.6183 16.0002Z" fill="black"/>
<path d="M16.0007 13.1558C17.5716 13.1558 18.8452 14.4292 18.8452 16.0002C18.8452 17.5711 17.5716 18.8447 16.0007 18.8447C14.4297 18.8447 13.1562 17.5711 13.1562 16.0002C13.1562 14.4292 14.4297 13.1558 16.0007 13.1558V13.1558Z" fill="black"/>
</svg>
