<svg width="31" height="31" viewBox="0 0 31 31" fill="none" xmlns="http://www.w3.org/2000/svg">
<path fill-rule="evenodd" clip-rule="evenodd" d="M0.916992 6.75033C0.916992 5.20323 1.53157 3.7195 2.62554 2.62554C3.7195 1.53157 5.20323 0.916992 6.75033 0.916992H24.2503C25.7974 0.916992 27.2812 1.53157 28.3751 2.62554C29.4691 3.7195 30.0837 5.20323 30.0837 6.75033V24.2503C30.0837 25.7974 29.4691 27.2812 28.3751 28.3751C27.2812 29.4691 25.7974 30.0837 24.2503 30.0837H6.75033C5.20323 30.0837 3.7195 29.4691 2.62554 28.3751C1.53157 27.2812 0.916992 25.7974 0.916992 24.2503V6.75033ZM6.75033 3.83366C5.97678 3.83366 5.23491 4.14095 4.68793 4.68793C4.14095 5.23491 3.83366 5.97678 3.83366 6.75033V24.2503C3.83366 25.0239 4.14095 25.7657 4.68793 26.3127C5.23491 26.8597 5.97678 27.167 6.75033 27.167H24.2503C25.0239 27.167 25.7657 26.8597 26.3127 26.3127C26.8597 25.7657 27.167 25.0239 27.167 24.2503V6.75033C27.167 5.97678 26.8597 5.23491 26.3127 4.68793C25.7657 4.14095 25.0239 3.83366 24.2503 3.83366H6.75033ZM15.5003 11.1253C14.34 11.1253 13.2272 11.5863 12.4067 12.4067C11.5863 13.2272 11.1253 14.34 11.1253 15.5003C11.1253 16.6606 11.5863 17.7734 12.4067 18.5939C13.2272 19.4144 14.34 19.8753 15.5003 19.8753C16.6606 19.8753 17.7734 19.4144 18.5939 18.5939C19.4144 17.7734 19.8753 16.6606 19.8753 15.5003C19.8753 14.34 19.4144 13.2272 18.5939 12.4067C17.7734 11.5863 16.6606 11.1253 15.5003 11.1253ZM8.20866 15.5003C8.20866 13.5665 8.97689 11.7118 10.3443 10.3443C11.7118 8.97689 13.5665 8.20866 15.5003 8.20866C17.4342 8.20866 19.2889 8.97689 20.6563 10.3443C22.0238 11.7118 22.792 13.5665 22.792 15.5003C22.792 17.4342 22.0238 19.2889 20.6563 20.6563C19.2889 22.0238 17.4342 22.792 15.5003 22.792C13.5665 22.792 11.7118 22.0238 10.3443 20.6563C8.97689 19.2889 8.20866 17.4342 8.20866 15.5003V15.5003ZM23.5212 9.66699C24.1013 9.66699 24.6577 9.43652 25.068 9.02629C25.4782 8.61605 25.7087 8.05965 25.7087 7.47949C25.7087 6.89933 25.4782 6.34293 25.068 5.9327C24.6577 5.52246 24.1013 5.29199 23.5212 5.29199C22.941 5.29199 22.3846 5.52246 21.9744 5.9327C21.5641 6.34293 21.3337 6.89933 21.3337 7.47949C21.3337 8.05965 21.5641 8.61605 21.9744 9.02629C22.3846 9.43652 22.941 9.66699 23.5212 9.66699Z" fill="black"/>
</svg>
