<svg xmlns="http://www.w3.org/2000/svg" viewBox="0 0 221.32 221.32"><g id="feee1ece-1617-4bd9-a939-cf5700164b64" data-name="Layer 2"><g id="eb10abd3-0388-4c81-87c3-f60490a4d386" data-name="Mx logo 2 n 3"><polygon points="71.82 83.77 44.8 66.22 43.27 68.57 68.91 85.22 71.82 83.77"/><polygon points="145.44 134.92 176.52 155.1 178.05 152.75 148.35 133.47 145.44 134.92"/><circle cx="110.79" cy="68.21" r="3.85"/><circle cx="110.79" cy="164.65" r="3.85"/><path d="M110.66,221.32A110.66,110.66,0,0,1,32.41,32.41a110.66,110.66,0,0,1,156.5,156.5A109.94,109.94,0,0,1,110.66,221.32ZM110.66,2A108.63,108.63,0,1,0,219.29,110.66,108.75,108.75,0,0,0,110.66,2Z"/><path d="M110.66,202.79a92.13,92.13,0,1,1,92.13-92.13A92.24,92.24,0,0,1,110.66,202.79Zm0-182.23a90.1,90.1,0,1,0,90.1,90.1A90.2,90.2,0,0,0,110.66,20.56Z"/><path d="M73.41,15.32c.74,1.74.24,2.81-1.69,3.64l-1.33.57,1.15,2.67-1.68.72-3.27-7.61,3-1.3C71.53,13.19,72.66,13.58,73.41,15.32ZM71.73,16c-.32-.73-.81-.89-1.66-.52L68.88,16l.9,2.08L71,17.59C71.81,17.23,72,16.76,71.73,16Z"/><path d="M80.6,10l2.6,7.87-1.74.57L80.39,15.2l-2.71.9,1.08,3.25L77,19.92l-2.6-7.86,1.74-.58,1,3.11,2.71-.89-1-3.11Z"/><path d="M84.24,14.23l-.42-1.78c-.53-2.26.26-3.53,2.49-4s3.5.26,4,2.51l.42,1.78c.53,2.26-.26,3.53-2.49,4S84.77,16.48,84.24,14.23ZM89,13.09l-.41-1.73c-.3-1.27-.83-1.68-1.9-1.43s-1.36.85-1.06,2.12l.4,1.73c.3,1.27.84,1.69,1.9,1.44S89.28,14.36,89,13.09Z"/><path d="M97.57,8.1l-2.19.34,1,6.61-1.8.28-1-6.61-2.19.34-.24-1.58,6.19-1Z"/><path d="M99.26,11.37l-.14-1.82c-.17-2.31.8-3.44,3.09-3.62s3.42.8,3.59,3.11l.14,1.82c.18,2.3-.79,3.44-3.08,3.62S99.44,13.68,99.26,11.37Zm4.86-.4L104,9.2c-.1-1.3-.56-1.79-1.65-1.7s-1.48.64-1.38,1.93l.14,1.78c.1,1.3.56,1.79,1.65,1.7S104.22,12.27,104.12,11Z"/><path d="M114.33,11c0,2.22-1.09,3.25-3.27,3.21s-3.28-1.14-3.24-3.36l0-2c0-2.22,1.14-3.28,3.29-3.25,2,0,3.12,1,3.16,2.77l-1.74,0c0-.77-.47-1.15-1.39-1.17s-1.47.49-1.5,1.81l0,1.78c0,1.3.39,1.83,1.48,1.85s1.44-.45,1.46-1.67l-1.36,0,0-1.57,3.11.05Z"/><path d="M119.13,11.36l-1-.09-.27,3.05-1.82-.16.73-8.25,3.37.29c2,.18,2.76,1,2.6,2.86-.12,1.35-.63,2.09-1.68,2.3l1.5,3.37-2.08-.18Zm-.84-1.64,1.35.12c.89.08,1.23-.2,1.3-.94s-.22-1.08-1.11-1.16l-1.36-.12Z"/><path d="M128.34,14l-2.56-.44-.8,1.56-1.83-.32,4.14-7.69,1.86.32,1.34,8.63-1.91-.33Zm-1.86-1.86,1.68.28-.33-3.12Z"/><path d="M139.14,12.51c-.47,1.82-1.53,2.37-3.56,1.85l-1.4-.36-.72,2.81-1.77-.46,2.06-8,3.17.81C139,9.66,139.61,10.66,139.14,12.51ZM137.37,12c.2-.77-.09-1.2-1-1.43l-1.25-.32-.56,2.2,1.25.32C136.71,13,137.18,12.81,137.37,12Z"/><path d="M148.07,12.68l-2.74,7.82-1.73-.6,1.14-3.23-2.7-1L140.91,19l-1.72-.61,2.74-7.82,1.72.61-1.08,3.09,2.69.94,1.08-3.09Z"/><path d="M151.72,19.47l-1.42,3.18-1.67-.74,1.4-3.15-.51-5.52,1.91.85.25,3.39,2.69-2.09,1.76.78Z"/><path d="M186,178.15,184.58,177c-1.77-1.48-1.92-2.94-.51-4.62s2.76-1.76,4.44-.42l-1.12,1.34c-.87-.68-1.47-.68-2.1.07s-.52,1.41.49,2.26l1.36,1.14c1,.85,1.65.88,2.31.09s.52-1.34-.28-2.06l1.12-1.34c1.6,1.41,1.71,2.81.35,4.43S187.76,179.64,186,178.15Z"/><path d="M190.8,172.35l-1.49-1.06c-1.88-1.35-2.12-2.83-.79-4.69s2.82-2.1,4.7-.75l1.48,1.06c1.88,1.35,2.13,2.83.79,4.69S192.68,173.7,190.8,172.35Zm2.82-4-1.45-1c-1.06-.76-1.73-.71-2.37.18s-.46,1.54.6,2.3l1.44,1c1.06.76,1.74.72,2.38-.17S194.68,169.14,193.62,168.38Z"/><path d="M197.19,159.45l1.49.91c1.93,1.17,2.28,2.54,1.12,4.45l-1.6,2.63-7.07-4.31,1.6-2.63C193.88,158.6,195.27,158.29,197.19,159.45Zm-.92,1.58c-1.11-.67-1.7-.55-2.34.5l-.52.85,4.41,2.69.52-.86c.64-1.05.47-1.63-.64-2.31Z"/><path d="M194.91,156.74l.86-1.61,7.3,3.91-.86,1.61Z"/><path d="M199.2,148l7.51,3.49-.73,1.58-6.33.38,5.06,2.35-.73,1.57-7.51-3.49.81-1.76,5.93-.35-4.74-2.2Z"/><path d="M206.7,142.8c2.07.78,2.69,2.11,1.93,4.16s-2.17,2.71-4.25,1.93l-1.85-.69c-2.07-.77-2.71-2.17-1.95-4.19.69-1.87,2-2.61,3.66-2l-.61,1.63c-.74-.21-1.24.06-1.57.93s0,1.55,1.2,2l1.67.62c1.22.46,1.86.24,2.24-.78s.06-1.51-1.08-1.94l-.48,1.28-1.47-.55,1.09-2.91Z"/><path d="M14.29,129.23l-1.76.36.63,3.08-1.54.31L11,129.9l-3.28.67-.36-1.79,8.11-1.65,1.11,5.47-1.54.31Z"/><path d="M16.81,133.38l.46,1.77-8,2-.45-1.77Z"/><path d="M12.81,143.63l-1.52.47L9.72,139l7.91-2.44.54,1.74-6.39,2Z"/><path d="M14.92,153.42l-.68-1.7,5.8-2.33-6.57.42L13,148.67l5-4.24-5.8,2.33-.64-1.61,7.69-3.08,1,2.48-4.36,3.66,5.67-.39,1,2.51Z"/><path d="M19.89,163.06,19,161.44l5.53-2.91-6.49,1.09-.58-1.09,4.57-4.74-5.53,2.92-.8-1.53,7.33-3.87,1.25,2.38-4,4.08,5.61-1,1.26,2.4Z"/><path d="M24.54,167.22,23.13,165l-1.69.46-1-1.55,8.47-2.15,1,1.59-5.47,6.82-1-1.63Zm.11-2.63.92,1.43,2.08-2.35Z"/><path d="M29.5,171.2l-1.58,0-1.75,1.32L25.07,171l6.63-5,1.09,1.46-2.89,2.17,4.58.08,1.26,1.67-4.32-.09-2.28,5.09-1.25-1.66Z"/><path d="M36.09,171.74l1.17,1.4-6.35,5.32-1.17-1.4Z"/><path d="M42.59,179l-6,5.68-1.19-1.26,2-6-4.06,3.83-1.19-1.26,6-5.68,1.33,1.4-1.87,5.64,3.8-3.59Z"/><path d="M44.65,187.84c-1.49,1.64-3,1.72-4.57.26s-1.72-3-.23-4.67L41.18,182c1.49-1.64,3-1.72,4.62-.27s1.69,2.79.54,4.17l-1.29-1.17c.47-.61.41-1.18-.27-1.8s-1.43-.6-2.32.37l-1.19,1.32c-.88,1-.91,1.64-.11,2.37s1.39.61,2.2-.29l-1-.92,1.06-1.16,2.3,2.08Z"/><path d="M88.14,144.61c-.22-11.77,14.3-40.92,14.34-49.07,0-1.09-.24-1.84-.86-2.16-11.64,17.17-18.91,47-22,58.45-3.24,1.36-4.79,1.52-4.83-.47,0-2.23,2-8.49,5.78-22.1,4.54-16.07,10.19-31.31,7-33.16-4.27,5.42-9.76,21.82-14.11,35.53-3.69,11.62-6.7,21.67-8.13,26.18-1.81.46-4.45.8-4.51-1.48-.27-6.58,12.75-36.6,12.56-50.06,0-2.4-.54-4.17-1.7-5.11-12.66,3-19.71,19.33-19.37,28.67.09,2.49.71,4.39,1.91,5.17,4.32-.85,7.17-11.46,7-17.53a8.29,8.29,0,0,0-.42-2.65A4.27,4.27,0,0,1,63,113.67c2.54-.59,3.72,1.3,3.8,4.32.15,6.51-4.62,18-11.17,18.8-5.67.65-8.16-3.8-8.37-9.31-.41-10.42,7.74-24.71,19.48-28,10-2.94,12.54,4.86,10.35,15.83,3.91-11.78,7.1-20.91,11.82-23,3.29-1.5,5,.2,5,2.49,0,2.91-1.63,10-5,21.08,4.63-13.15,9.68-24,12.8-25.56C105.23,88.55,108,89,108,92.47c-.08,7.67-15.13,41.55-15,51.64,0,2.35,1.73,2.71,5.3,1a.63.63,0,0,1,.06.31c0,.63-.76,2-3.5,3.29C90.09,151,88.19,148.88,88.14,144.61Z"/><path d="M112.38,125.12c0-1.44,1.28-5.12,2.35-9-3.08,7.78-5.56,14-8.21,15.34-1.93,1-4.42.25-4.43-2.39,0-3.27,1.19-8.63,2.85-13.77,2.55-8,5.71-15.77,9.53-17.66,2-1,4.32-.34,4.57,2.76.63-1.86,1.2-3.68,1.72-5.25,2.3-1.16,4.1-1.81,4.08.32,0,1.44-1.69,7.1-3.57,13-2,6.37-4.51,13-5.13,15.87,3.58-3.27,10-17.85,13.65-28.16.39-.23.45-.13.44.16-.07,2.85-9.29,27.92-14.6,30.6A2.15,2.15,0,0,1,112.38,125.12Zm2.31-12.52c1.35-3.65,3-7.75,3.06-9.88s-.83-2.7-1.78-2.23c-1.12.55-2.55,3.55-6.34,15.09-2,6.06-3.11,11.72-2.83,13.13C108.78,126.74,111.83,120,114.69,112.6Z"/><path d="M108.18,142.32c0-3.55,1.81-8.44,8.1-12.86,1.1-.83,2.59-1.84,4.19-3,3.37-10.93,7.73-24.87,10.38-34.44a16.92,16.92,0,0,1-2.65,1.67c-1.06.48-1.45.26-1.44-.32a2.78,2.78,0,0,1,.17-.89c1.69-.7,3.32-1.76,4.78-2.38,2.25-1,3.58-.39,3.55,1.64-.06,3.17-4.67,17.58-8.14,28.35,6.54-9.06,10-18.37,13.64-28.25.4-.2.45-.1.44.19-.07,2.84-6.86,23-15,30.77-1.37,4.12-2.44,7.38-2.89,8.62-2.47,7-5.66,13-8.38,14.32C110.58,147.89,108.18,145.83,108.18,142.32Zm10.72-10.87c.28-.82.5-1.68.79-2.56-4.2,3.46-7,6-7,11.77,0,1.9.43,3.06,1,3.54C116.16,141.69,117.72,135.18,118.9,131.45Zm22-54.65c-.05,2.26-3.3,5.62-5.58,8.1A17.68,17.68,0,0,0,133.6,87c-.4.16-.84.06-.83-.52a15.89,15.89,0,0,1,.87-2.32,52.91,52.91,0,0,0,2.83-8.49C139.18,74.65,141,74.84,140.94,76.8Z"/><path d="M141,115.85c-3.53,1.23-6.58,0-6.51-4.73.08-5.32,2.64-13.57,6.21-20,.64-1.2,1.44-2.58,2.34-2.88a1.36,1.36,0,0,1,.78,0,8.46,8.46,0,0,1,5.4-4.74c3-.84,6.18.84,6.07,4.74s-2.83,11.74-6.12,18.28c4.26-3.28,8.47-12,12.36-22,.68-.2,1.18-.13,1.15.8-.13,3.39-6.16,20.82-13.5,22.8a5.3,5.3,0,0,1-.94.2l-.74,1.3C145.4,113.23,142.89,115.19,141,115.85Zm3.53-8.72c-1.73-1.7-2.38-5.09-2.42-8.65a42.56,42.56,0,0,0-2.66,11.82c0,2,.44,3.29,1.59,3.29A36.92,36.92,0,0,0,144.55,107.13Zm1-2.33c2.27-5.48,4.38-12.08,4.49-16.43,0-1.33-.33-2.7-2-2.8-2.05,1.86-4,7.78-4.06,12.76C143.91,100.94,144.35,103.33,145.53,104.8Z"/><path d="M155.94,107.23c.06-3,8.43-17.43,8.51-19.09,0-.82-.47-1.13-1.13-1.54-2-1.14-2.44-2.28-2.36-4.78.19-6.16,2.58-9,4.73-9.08a2.86,2.86,0,0,1,2.7,1.58,58.43,58.43,0,0,0-4.82,8.15,3.27,3.27,0,0,0-.44,1.49c0,.46.15.73.48.82,4.1,1.07,5.44,1.18,5.34,3.83-.06,1.86-2.41,6.68-4.56,11.3a54.83,54.83,0,0,0-3.36,8.36c2.3-1.42,4.33-4.49,5.93-7.26.45-.07.77,0,.75.62-.09,2.48-4.63,9.15-7.93,9.63C157.63,111.53,155.87,109.68,155.94,107.23Z"/><path d="M68.91,53.08c.81-.63,1.64-1.24,2.47-1.83l.56.67c-.82.58-1.63,1.19-2.44,1.81C69.31,53.51,69.11,53.3,68.91,53.08Z"/><path d="M73.64,51.91c.14-1.28.33-2.56.57-3.85a1,1,0,0,0-.12-.74,1,1,0,0,0-1.45-.15.87.87,0,0,0-.33,1.34.88.88,0,0,0,.65.26c-.06.31-.12.63-.17.95a1.72,1.72,0,0,1-1.45-.56c-.66-.83-.36-2,.78-2.69s2.35-.62,2.95.26a1.67,1.67,0,0,1,.2,1.32c-.21,1-.38,2-.53,3,.77-.5,1.55-1,2.33-1.44l.49.71c-1.16.69-2.3,1.42-3.43,2.18Z"/><path d="M78.28,49.38a.56.56,0,0,1,.25-.8.65.65,0,0,1,.87.17.56.56,0,0,1-.25.79A.66.66,0,0,1,78.28,49.38Z"/><path d="M80.59,48.13a.57.57,0,0,1,.28-.79.65.65,0,0,1,.86.21.57.57,0,0,1-.28.78A.66.66,0,0,1,80.59,48.13Z"/><path d="M82,45.09q1.35-.63,2.73-1.2l.37.78c-.9.37-1.8.77-2.69,1.18Z"/><path d="M86.48,41.06c-.2.39-.4.79-.59,1.19l-1-.29c.37-.76.76-1.51,1.17-2.27l.94-.33c.75,1.86,1.5,3.71,2.24,5.57l-1,.36Z"/><path d="M90.53,44a.58.58,0,0,1,.41-.72.63.63,0,0,1,.8.35.58.58,0,0,1-.41.72A.64.64,0,0,1,90.53,44Z"/><path d="M93,43.25a.57.57,0,0,1,.44-.71.63.63,0,0,1,.78.38.58.58,0,0,1-.44.7A.63.63,0,0,1,93,43.25Z"/><path d="M126,42.65a.54.54,0,0,1,.67-.37.48.48,0,0,1,.38.63.52.52,0,0,1-.67.37A.5.5,0,0,1,126,42.65Z"/><path d="M127.84,43.11a.54.54,0,0,1,.69-.35.49.49,0,0,1,.36.64.54.54,0,0,1-.69.35A.49.49,0,0,1,127.84,43.11Z"/><path d="M133.53,40.72l-.71,1.8c.67.23,1.35.48,2,.73l-.2.45c-.67-.25-1.33-.49-2-.72l-.72,1.82-.55-.18c.23-.61.46-1.22.7-1.83-.67-.22-1.35-.43-2-.63,0-.16.1-.31.16-.47.68.2,1.36.42,2,.64l.69-1.81Z"/><path d="M137.93,42.17l-1.33.44c-.16-.28-.31-.57-.47-.86.84-.28,1.69-.55,2.56-.8l.93.4-2.72,5.39c-.32-.15-.64-.28-1-.42C136.59,44.94,137.26,43.55,137.93,42.17Z"/><path d="M138.53,46.93a.67.67,0,0,1,.86-.23.58.58,0,0,1,.3.78.65.65,0,0,1-.85.23A.58.58,0,0,1,138.53,46.93Z"/><path d="M140.89,48.08a.66.66,0,0,1,.87-.19.56.56,0,0,1,.26.79.66.66,0,0,1-.86.19A.56.56,0,0,1,140.89,48.08Z"/><path d="M147.59,47.34c-.38.53-.76,1.07-1.15,1.6.63.38,1.24.78,1.86,1.18-.11.13-.21.27-.31.4-.61-.4-1.22-.79-1.84-1.17-.39.53-.77,1.07-1.16,1.61l-.51-.31L145.62,49c-.62-.38-1.24-.74-1.87-1.09l.27-.42c.64.35,1.27.72,1.89,1.1.38-.54.76-1.07,1.13-1.61Z"/><path d="M148,52c1.37-.26,2.76-.47,4.18-.63a1.16,1.16,0,0,0,.74-.31.89.89,0,0,0-.29-1.35,1.06,1.06,0,0,0-1.5.11.68.68,0,0,0-.07.65l-1,.13a1.38,1.38,0,0,1,.15-1.44,2.16,2.16,0,0,1,3-.11c1.1.8,1.38,1.92.64,2.71a1.93,1.93,0,0,1-1.32.55c-1.13.11-2.24.25-3.32.42.75.53,1.49,1.08,2.23,1.65l-.6.65c-1.09-.84-2.2-1.65-3.32-2.42C147.7,52.4,147.86,52.19,148,52Z"/><path d="M110.66,40.07A1.2,1.2,0,0,0,111.92,39a1.27,1.27,0,0,0-2.52,0A1.2,1.2,0,0,0,110.66,40.07Z"/><path d="M114.36,40.17a1.22,1.22,0,0,0,1.32-1A1.17,1.17,0,0,0,114.49,38a1.11,1.11,0,1,0-.13,2.2Z"/><path d="M107,40.18a1.11,1.11,0,1,0-.15-2.19,1.17,1.17,0,0,0-1.18,1.18A1.21,1.21,0,0,0,107,40.18Z"/><path d="M101.45,44.32c-.13-.81-.27-1.62-.41-2.43a1.56,1.56,0,0,0-1.91-1.22l-.27-1.35a1.57,1.57,0,0,0,1.43-1.76l-.42-2.44c-.28-1.55,1.25-3.11,3.29-3.31h.07c0,.45.1.91.16,1.36-1.08.11-1.76.84-1.63,1.68s.23,1.65.35,2.48a2.73,2.73,0,0,1-.87,2.28,2.66,2.66,0,0,1,1.48,2.06c.12.81.23,1.63.35,2.44a1.54,1.54,0,0,0,1.72,1.34l.15,1.36h-.06A3.05,3.05,0,0,1,101.45,44.32Z"/><path d="M116.57,45.42a1.52,1.52,0,0,0,1.7-1.37c.12-.81.23-1.61.34-2.42a2.68,2.68,0,0,1,1.46-2,2.67,2.67,0,0,1-.86-2.36c.1-.8.21-1.6.32-2.4a1.6,1.6,0,0,0-1.64-1.75l.15-1.37h.09c2.21.21,3.59,1.67,3.3,3.31-.14.81-.27,1.63-.41,2.44a1.57,1.57,0,0,0,1.44,1.75c-.09.45-.17.9-.26,1.35a1.57,1.57,0,0,0-1.91,1.22c-.13.82-.27,1.64-.41,2.45a3.19,3.19,0,0,1-3.41,2.49h0Z"/><path d="M113.15,34.66a1.37,1.37,0,0,1-.4,1l-2.07,2.07-2.07-2.07a1.38,1.38,0,0,1,0-2,1.38,1.38,0,0,1,1.94,0l.13.13.12-.13a1.38,1.38,0,0,1,2,0A1.36,1.36,0,0,1,113.15,34.66Z"/></g></g></svg>