<svg width="35" height="35" viewBox="0 0 35 35" fill="none" xmlns="http://www.w3.org/2000/svg">
<path fill-rule="evenodd" clip-rule="evenodd" d="M17.5 0C7.83502 0 0 7.83502 0 17.5C0 27.165 7.83502 35 17.5 35C27.165 35 35 27.165 35 17.5C35 7.83502 27.165 0 17.5 0ZM9.86203 11.6402C11.6879 9.90419 15.9287 9.90419 17.7545 13.3762C19.5804 9.90419 23.8212 9.90419 25.647 11.6402C27.4729 13.3762 28.0562 16.8476 26.2304 20.3202C25.0686 22.6861 21.2778 25.0568 18.5385 26.77C18.2655 26.9407 18.003 27.1049 17.7545 27.2619C17.5061 27.1049 17.2436 26.9407 16.9706 26.77C14.2313 25.0568 10.4404 22.6861 9.27869 20.3202C7.45286 16.8476 8.03619 13.3762 9.86203 11.6402Z" fill="black"/>
</svg>
