<svg width="32" height="29" viewBox="0 0 32 29" fill="none" xmlns="http://www.w3.org/2000/svg">
<path fill-rule="evenodd" clip-rule="evenodd" d="M22.198 21.8043C14.8947 17.7799 14.5103 15.9594 7.97576 19.4088L4.13192 18.3548C2.21 19.6005 1.24904 22.0917 0.768555 25.5412L7.97576 26.0202H10.9547L20.6604 28.799L30.4622 20.9419C31.3271 20.2712 31.5193 17.3967 28.6364 18.0674L23.0628 21.9959C23.0628 21.9959 23.6394 25.8286 19.5073 25.8286L14.7986 23.3374C14.4142 23.1457 14.6064 22.3792 15.4713 22.7625L19.5073 24.8704C20.18 25.1579 22.6785 24.583 22.198 21.8043Z" fill="black"/>
<path fill-rule="evenodd" clip-rule="evenodd" d="M11.4355 4.74906C11.4355 8.86922 16.2404 12.9894 21.0452 17.1095C25.85 12.9894 30.6548 8.86922 30.6548 4.74906C30.6548 2.54526 28.4446 0.628906 25.85 0.628906C23.4476 0.628906 22.1983 1.6829 21.0452 3.79089C19.7959 1.6829 18.6428 0.628906 16.2404 0.628906C13.5497 0.628906 11.4355 2.54526 11.4355 4.74906Z" fill="black"/>
</svg>
