<svg width="35" height="31" viewBox="0 0 35 31" fill="none" xmlns="http://www.w3.org/2000/svg">
<path d="M7.95455 0C7.07591 0 6.36364 0.712274 6.36364 1.59091V4.77273C6.36364 5.65136 7.07591 6.36364 7.95455 6.36364C8.83318 6.36364 9.54545 5.65136 9.54545 4.77273V1.59091C9.54545 0.712274 8.83318 0 7.95455 0Z" fill="black"/>
<path fill-rule="evenodd" clip-rule="evenodd" d="M19.0909 30.2273C23.8207 30.2273 27.747 26.7873 28.5044 22.2727H28.6364C32.1509 22.2727 35 19.4236 35 15.9091C35 12.3946 32.1509 9.54545 28.6364 9.54545V9.54545C28.6364 8.66682 27.9241 7.95455 27.0455 7.95455H2C0.895431 7.95455 0 8.84998 0 9.95455V20.6818C0 25.9536 4.27365 30.2273 9.54545 30.2273H19.0909ZM3.18182 11.1364V20.6818C3.18182 24.1964 6.03092 27.0455 9.54545 27.0455H19.0909C22.6054 27.0455 25.4545 24.1964 25.4545 20.6818V11.1364H3.18182ZM31.8182 15.9091C31.8182 17.6664 30.3936 19.0909 28.6364 19.0909V12.7273C30.3936 12.7273 31.8182 14.1518 31.8182 15.9091Z" fill="black"/>
<path d="M12.7273 1.59091C12.7273 0.712274 13.4395 0 14.3182 0C15.1968 0 15.9091 0.712274 15.9091 1.59091V4.77273C15.9091 5.65136 15.1968 6.36364 14.3182 6.36364C13.4395 6.36364 12.7273 5.65136 12.7273 4.77273V1.59091Z" fill="black"/>
<path d="M20.6818 0C19.8032 0 19.0909 0.712274 19.0909 1.59091V4.77273C19.0909 5.65136 19.8032 6.36364 20.6818 6.36364C21.5605 6.36364 22.2727 5.65136 22.2727 4.77273V1.59091C22.2727 0.712274 21.5605 0 20.6818 0Z" fill="black"/>
</svg>
