<svg width="50" height="50" viewBox="0 0 50 50" fill="none" xmlns="http://www.w3.org/2000/svg">
<path d="M25.043 6C23.6391 6 22.2748 6.1619 20.9574 6.4502L31.8984 23.5889L38.2692 11.3667C34.8427 8.0533 30.1859 6 25.043 6ZM20.2995 6.58868C14.1984 8.15688 9.27393 12.6758 7.14258 18.5338H27.8821L20.2995 6.58868ZM38.7539 11.8515L29.0247 30.4443H43.2896C43.7935 28.7345 44.0859 26.9161 44.0859 25.043C44.0859 19.9177 42.0471 15.2746 38.7539 11.8515ZM6.93484 19.1917C6.33846 21.0371 6 23.0002 6 25.043C6 29.662 7.66177 33.8987 10.3972 37.1959L20.6804 19.3994C20.6974 19.3694 20.725 19.3504 20.7496 19.3304L20.8535 19.1919H6.93484L6.93484 19.1917ZM17.8759 25.5624L10.8819 37.7152C14.3689 41.6122 19.4021 44.0861 25.043 44.0861C26.4489 44.0861 27.8109 43.9249 29.1285 43.6359L17.8759 25.5624ZM22.0653 31.0675L29.821 43.4628C36.0656 41.8442 41.0567 37.1457 43.0819 31.0675H22.0653Z" fill="black"/>
</svg>
