<svg width="31" height="26" viewBox="0 0 31 26" fill="none" xmlns="http://www.w3.org/2000/svg">
<path fill-rule="evenodd" clip-rule="evenodd" d="M19.6545 3.25185C18.9883 3.25158 18.3303 3.39922 17.7281 3.68413C17.1258 3.96903 16.5944 4.3841 16.172 4.89936C15.7497 5.41462 15.447 6.01722 15.2859 6.66366C15.1247 7.3101 15.1091 7.98426 15.2401 8.63748C15.2852 8.86381 15.276 9.09761 15.2132 9.31968C15.1503 9.54174 15.0357 9.74572 14.8787 9.91485C14.7216 10.084 14.5267 10.2134 14.3099 10.2925C14.0931 10.3717 13.8606 10.3982 13.6316 10.37C10.4958 9.98477 7.53972 8.69574 5.12367 6.65998C5.16887 7.53789 5.47366 8.47123 6.13429 9.44831L7.1245 10.9125L5.49846 11.6052L5.18492 11.7394C5.41825 12.0062 5.69825 12.2789 6.01179 12.5487C6.43094 12.9075 6.87435 13.2369 7.33887 13.5346L7.35491 13.5448H7.35637L9.61387 14.9141L7.25137 16.0954C7.13471 16.1537 7.01804 16.2062 6.90137 16.2529C7.40937 16.675 7.969 17.0308 8.56679 17.3116L10.5939 18.2698L8.89637 19.7339C7.97033 20.5331 7.03846 21.1296 5.8295 21.4446C7.68368 22.4322 9.75306 22.9467 11.8539 22.9423C18.8626 22.9423 24.5064 17.3496 24.5064 10.4969V9.73852L25.1262 9.30248C26.0945 8.62289 26.7785 7.70414 27.2685 6.65269H24.1185L23.7218 5.82144C23.3565 5.05241 22.7806 4.40277 22.0609 3.94793C21.3413 3.4931 20.5073 3.25173 19.656 3.25185H19.6545ZM3.2045 13.8977C3.06688 14.0553 2.96479 14.2407 2.90515 14.4412C2.84552 14.6418 2.82973 14.8528 2.85887 15.06C3.02366 16.2281 3.72221 17.2344 4.49512 18.0029C4.70512 18.2114 4.92971 18.4112 5.16596 18.6023L5.05658 18.6314C4.35512 18.8064 3.40866 18.8429 1.83221 18.6898C1.5345 18.6606 1.23501 18.7236 0.974349 18.8703C0.713684 19.0171 0.504452 19.2405 0.375022 19.5101C0.245593 19.7798 0.202227 20.0828 0.250804 20.378C0.299381 20.6731 0.437552 20.9462 0.646581 21.1602C2.10604 22.6519 3.84951 23.8363 5.77411 24.6433C7.69872 25.4503 9.76547 25.8636 11.8524 25.8589C20.1839 25.8589 27.0176 19.3898 27.4041 11.226C29.2853 9.64664 30.226 7.50727 30.7335 5.56331C30.7899 5.34755 30.7961 5.12173 30.7515 4.9032C30.707 4.68468 30.613 4.47927 30.4766 4.30279C30.3403 4.12631 30.1653 3.98344 29.9651 3.88519C29.7649 3.78693 29.5448 3.7359 29.3218 3.73602H25.8903C25.051 2.43274 23.8244 1.4252 22.3829 0.854984C20.9414 0.284766 19.3575 0.180528 17.8537 0.556917C16.3499 0.933307 15.0018 1.77141 13.9989 2.95344C12.996 4.13548 12.3886 5.60205 12.2622 7.14706C9.574 6.44728 7.16873 4.93157 5.37741 2.80852C5.21878 2.62095 5.01532 2.4765 4.78594 2.38856C4.55656 2.30063 4.30868 2.27207 4.06531 2.30552C3.82194 2.33898 3.59097 2.43338 3.39383 2.57995C3.19668 2.72652 3.03976 2.92052 2.93762 3.14394C2.05387 5.07185 1.88471 7.29435 2.87054 9.55477L2.52929 9.7006C2.20273 9.83975 1.93814 10.0932 1.78511 10.4135C1.63208 10.7338 1.60112 11.0989 1.69804 11.4404C1.96929 12.3912 2.57887 13.2312 3.20304 13.8977H3.2045Z" fill="black"/>
</svg>
