<svg width="32" height="32" viewBox="0 0 32 32" fill="none" xmlns="http://www.w3.org/2000/svg">
<path fill-rule="evenodd" clip-rule="evenodd" d="M16 0C7.16344 0 0 7.16344 0 16C0 24.8366 7.16344 32 16 32C24.8366 32 32 24.8366 32 16C32 7.16344 24.8366 0 16 0ZM22.6677 10.4995C23.402 10.701 23.9803 11.2947 24.1766 12.0487C24.5333 13.4153 24.5333 16.2666 24.5333 16.2666C24.5333 16.2666 24.5333 19.1178 24.1766 20.4845C23.9803 21.2385 23.402 21.8322 22.6677 22.0338C21.3369 22.3999 15.9999 22.3999 15.9999 22.3999C15.9999 22.3999 10.663 22.3999 9.3321 22.0338C8.59775 21.8322 8.01943 21.2385 7.82316 20.4845C7.4666 19.1178 7.4666 16.2666 7.4666 16.2666C7.4666 16.2666 7.4666 13.4153 7.82316 12.0487C8.01943 11.2947 8.59775 10.701 9.3321 10.4995C10.663 10.1333 15.9999 10.1333 15.9999 10.1333C15.9999 10.1333 21.3369 10.1333 22.6677 10.4995Z" fill="black"/>
<path d="M14.4004 19.2V13.8667L18.6671 16.5335L14.4004 19.2Z" fill="black"/>
</svg>
