<svg width="33" height="28" viewBox="0 0 33 28" fill="none" xmlns="http://www.w3.org/2000/svg">
<path fill-rule="evenodd" clip-rule="evenodd" d="M9.98193 3.31734C13.7619 2.78214 18.3207 2.78214 22.1007 3.31734C25.5351 3.80443 28.1965 6.21359 28.704 8.80943C29.3209 11.9521 29.3209 15.7555 28.704 18.8982C28.1951 21.494 25.5351 23.9032 22.1007 24.3903C18.3207 24.9255 13.7605 24.9255 9.98193 24.3903C6.54755 23.9032 3.88755 21.494 3.37859 18.8982C2.76172 15.7555 2.76172 11.9521 3.37859 8.80943C3.88755 6.21359 6.54755 3.80443 9.98193 3.31734V3.31734ZM22.509 0.429844C18.4592 -0.143281 13.6234 -0.143281 9.5736 0.429844C5.17672 1.05255 1.31214 4.18943 0.517344 8.24943C-0.172448 11.7626 -0.172448 15.9451 0.517344 19.4582C1.31214 23.5182 5.17672 26.6551 9.5736 27.2778C13.6234 27.8509 18.4592 27.8509 22.509 27.2778C26.9059 26.6551 30.7705 23.5182 31.5653 19.4582C32.2551 15.9451 32.2551 11.7626 31.5653 8.24943C30.7705 4.18943 26.9059 1.05255 22.509 0.429844V0.429844ZM13.934 6.80714C13.7144 6.6606 13.4591 6.57644 13.1954 6.56364C12.9317 6.55083 12.6694 6.60985 12.4366 6.7344C12.2039 6.85896 12.0092 7.04438 11.8736 7.27087C11.7379 7.49737 11.6663 7.75645 11.6663 8.02047V19.6871C11.6663 19.9512 11.7379 20.2102 11.8736 20.4367C12.0092 20.6632 12.2039 20.8486 12.4366 20.9732C12.6694 21.0978 12.9317 21.1568 13.1954 21.144C13.4591 21.1312 13.7144 21.047 13.934 20.9005L22.684 15.0671C22.8837 14.934 23.0475 14.7535 23.1608 14.5419C23.274 14.3302 23.3333 14.0939 23.3333 13.8538C23.3333 13.6137 23.274 13.3774 23.1608 13.1657C23.0475 12.9541 22.8837 12.7736 22.684 12.6405L13.934 6.80714ZM19.2453 13.8538L14.583 16.963V10.7461L19.2453 13.8538Z" fill="black"/>
</svg>
