<svg width="59" height="59" viewBox="0 0 59 59" fill="none" xmlns="http://www.w3.org/2000/svg">
<path d="M38.1269 1.15291e-09H16.7759C14.5728 -4.3033e-06 12.3914 0.433913 10.356 1.27698C8.32067 2.12004 6.47131 3.35574 4.91353 4.91353C3.35574 6.47131 2.12004 8.32067 1.27698 10.356C0.433913 12.3914 -4.30442e-06 14.5728 0 16.7759V38.1269C0 40.33 0.433921 42.5114 1.27699 44.5468C2.12005 46.5821 3.35576 48.4315 4.91354 49.9893C6.47132 51.547 8.32068 52.7827 10.356 53.6258C12.3914 54.4689 14.5728 54.9028 16.7759 54.9028H38.1269C40.33 54.9028 42.5115 54.4689 44.5468 53.6258C46.5822 52.7828 48.4315 51.5471 49.9893 49.9893C51.5471 48.4315 52.7828 46.5821 53.6258 44.5468C54.4689 42.5114 54.9028 40.33 54.9028 38.1269V16.7759C54.9028 14.5728 54.4689 12.3913 53.6258 10.356C52.7828 8.32063 51.5471 6.47127 49.9893 4.91348C48.4315 3.35569 46.5821 2.11999 44.5468 1.27693C42.5114 0.433877 40.33 -2.5826e-05 38.1269 1.15291e-09Z" transform="translate(2.04858 2.04858)" fill="white"/>
<path d="M40.9722 4.91667C44.4483 4.9206 47.7809 6.3032 50.2388 8.76116C52.6968 11.2191 54.0794 14.5517 54.0833 18.0278V40.9722C54.0794 44.4483 52.6968 47.7809 50.2388 50.2388C47.7809 52.6968 44.4483 54.0794 40.9722 54.0833H18.0278C14.5517 54.0794 11.2191 52.6968 8.76116 50.2388C6.3032 47.7809 4.9206 44.4483 4.91667 40.9722V18.0278C4.9206 14.5517 6.3032 11.2191 8.76116 8.76116C11.2191 6.3032 14.5517 4.9206 18.0278 4.91667H40.9722ZM40.9722 0H18.0278C13.2465 0 8.66108 1.89935 5.28021 5.28021C1.89935 8.66108 0 13.2465 0 18.0278V40.9722C0 45.7535 1.89935 50.3389 5.28021 53.7198C8.66108 57.1007 13.2465 59 18.0278 59H40.9722C45.7535 59 50.3389 57.1007 53.7198 53.7198C57.1007 50.3389 59 45.7535 59 40.9722V18.0278C59 13.2465 57.1007 8.66108 53.7198 5.28021C50.3389 1.89935 45.7535 0 40.9722 0Z" fill="#FF78B2"/>
<path d="M14.75 4.91667C16.6949 4.91667 18.596 5.49338 20.2131 6.57388C21.8302 7.65438 23.0906 9.19014 23.8348 10.9869C24.5791 12.7838 24.7738 14.7609 24.3944 16.6684C24.015 18.5759 23.0784 20.328 21.7032 21.7032C20.328 23.0784 18.5759 24.015 16.6684 24.3944C14.7609 24.7738 12.7838 24.5791 10.987 23.8348C9.19015 23.0906 7.65439 21.8302 6.57389 20.2131C5.49339 18.596 4.91667 16.6948 4.91667 14.75C4.91961 12.1429 5.95657 9.6435 7.80004 7.80003C9.64351 5.95656 12.1429 4.91961 14.75 4.91667ZM14.75 0C11.8327 0 8.98097 0.865072 6.55535 2.48582C4.12972 4.10657 2.23918 6.41021 1.12278 9.10542C0.00639116 11.8006 -0.285708 14.7664 0.283424 17.6276C0.852556 20.4888 2.25736 23.117 4.32018 25.1798C6.38301 27.2426 9.0112 28.6475 11.8724 29.2166C14.7336 29.7857 17.6994 29.4936 20.3946 28.3772C23.0898 27.2608 25.3934 25.3703 27.0142 22.9447C28.6349 20.519 29.5 17.6673 29.5 14.75C29.5 10.8381 27.946 7.08634 25.1798 4.32018C22.4137 1.55401 18.6619 0 14.75 0Z" transform="translate(14.75 14.75)" fill="#FF78B2"/>
<path d="M3.27778 6.55556C5.08805 6.55556 6.55556 5.08805 6.55556 3.27778C6.55556 1.46751 5.08805 0 3.27778 0C1.46751 0 0 1.46751 0 3.27778C0 5.08805 1.46751 6.55556 3.27778 6.55556Z" transform="translate(41.6276 10.8167)" fill="#FF78B2"/>
</svg>
