<?xml version="1.0" ?><svg enable-background="new 0 0 32 32" version="1.1" viewBox="0 0 32 32" xml:space="preserve" xmlns="http://www.w3.org/2000/svg" xmlns:xlink="http://www.w3.org/1999/xlink"><g id="GLYPH"><g><g><polygon points="29.935,13.935 18.065,2.065 17.958,3.604 28.395,14.043    "/></g><g><polygon points="2.065,18.065 13.937,29.937 14.044,28.395 3.607,17.957    "/></g></g><g><g><path d="M30.403,14.403l-2.2,0.155L17.442,3.798l0.154-2.201L16,0L0,16l1.596,1.596l2.202-0.155L14.56,28.202l-0.155,2.203L16,32     l16-16L30.403,14.403z M19.013,16.367h-1.934v7.018h-2.9v-7.017h-1.449v-2.419h1.449v-1.452c0-1.973,0.818-3.146,3.142-3.146     h1.935v2.419h-1.209c-0.905,0-0.965,0.338-0.965,0.969l-0.003,1.211h2.191L19.013,16.367z"/></g></g></g></svg>