<?xml version="1.0" ?><svg enable-background="new 0 0 32 32" version="1.1" viewBox="0 0 32 32" xml:space="preserve" xmlns="http://www.w3.org/2000/svg" xmlns:xlink="http://www.w3.org/1999/xlink"><g id="GLYPH"><g><g><polygon points="29.935,13.935 18.065,2.065 17.958,3.604 28.395,14.043    "/></g><g><polygon points="2.065,18.065 13.937,29.937 14.044,28.395 3.607,17.957    "/></g></g><g><g><path d="M30.403,14.403l-2.2,0.155L17.442,3.798l0.154-2.201L16,0L0,16l1.596,1.596l2.202-0.155l10.761,10.761l-0.155,2.203     L16,32l16-16L30.403,14.403z M17.158,18.584c0.26,0.225,0.462,1.02,0.462,1.385v3.232h-1.845h-1.847c0,0,0.005-1.096,0-1.847     c-2.527,0.544-3.232-1.385-3.232-1.385c-0.462-0.923-0.923-1.385-0.923-1.385c-0.923-0.548,0-0.462,0-0.462     c0.923,0,1.385,0.923,1.385,0.923c0.81,1.376,2.252,1.154,2.77,0.923c0-0.462,0.202-1.16,0.462-1.385     c-2.017-0.227-3.695-1.385-3.695-3.694s0.464-2.77,0.925-3.232c-0.093-0.228-0.48-1.069,0.014-2.309c0,0,0.907,0,1.831,1.385     c0.458-0.458,1.847-0.462,2.309-0.462c0.461,0,1.851,0.004,2.308,0.462c0.923-1.385,1.833-1.385,1.833-1.385     c0.494,1.24,0.108,2.081,0.014,2.309c0.462,0.462,0.923,0.923,0.923,3.232S19.176,18.357,17.158,18.584z"/></g></g></g></svg>