<?xml version="1.0" ?><svg enable-background="new 0 0 32 32" version="1.1" viewBox="0 0 32 32" xml:space="preserve" xmlns="http://www.w3.org/2000/svg" xmlns:xlink="http://www.w3.org/1999/xlink"><g id="GLYPH"><g><g><polygon points="29.935,13.935 18.065,2.065 17.958,3.604 28.395,14.043    "/></g><g><polygon points="2.065,18.065 13.937,29.937 14.044,28.395 3.607,17.957    "/></g></g><g><g><path d="M20.059,11.335h-1.476c-0.204,0-0.369,0.165-0.369,0.369v1.476c0,0.204,0.165,0.369,0.369,0.369h1.476     c0.204,0,0.369-0.165,0.369-0.369v-1.476C20.428,11.5,20.263,11.335,20.059,11.335z"/></g><g><path d="M19.678,15.869c0,1.963-1.643,3.555-3.669,3.555c-2.025,0-3.669-1.593-3.669-3.555c0-0.352,0.054-0.692,0.152-1.013     l-0.92-0.2v5.166c0,0.259,0.111,0.369,0.369,0.369h8.118c0.258,0,0.369-0.11,0.369-0.369v-5.166l-0.902,0.2     C19.624,15.177,19.678,15.517,19.678,15.869z"/></g><g><ellipse cx="16.009" cy="15.741" rx="2.37" ry="2.297"/></g><g><g><path d="M30.403,14.403l-2.2,0.155L17.442,3.798l0.154-2.201L16,0L0,16l1.596,1.596l2.202-0.155L14.56,28.202l-0.155,2.203      L16,32l16-16L30.403,14.403z M21.904,20.191c0,0.833-0.643,1.476-1.476,1.476h-8.856c-0.834,0-1.476-0.643-1.476-1.476v-8.856      c0-0.834,0.642-1.476,1.476-1.476h8.856c0.833,0,1.476,0.642,1.476,1.476V20.191z"/></g></g></g></g></svg>