<svg width="294" height="305" viewBox="0 0 294 305" version="1.1" xmlns="http://www.w3.org/2000/svg" xmlns:xlink="http://www.w3.org/1999/xlink">
<title>JonMajorLogo</title>
<desc>Created using Figma</desc>
<g id="Canvas" transform="translate(-2154 412)">
<g id="JonMajorLogo">
<g id="Vector">
<use xlink:href="#path0_stroke" transform="translate(2157.05 -409.337)" fill="#2D9CDB"/>
</g>
<g id="J M C">
<use xlink:href="#path1_fill" transform="translate(2157.05 -299.337)"/>
</g>
<g id="Vector 2">
<use xlink:href="#path2_stroke" transform="translate(2260.05 -213.337)"/>
</g>
<g id="Vector 2.1">
<use xlink:href="#path2_stroke" transform="translate(2260.05 -306.337)"/>
</g>
</g>
</g>
<defs>
<path id="path0_stroke" d="M 143.5 0L 145.872 -0.790569C 145.531 -1.81142 144.576 -2.5 143.5 -2.5C 142.424 -2.5 141.469 -1.81142 141.128 -0.790569L 143.5 0ZM 168 73.5L 165.628 74.2906C 165.879 75.0429 166.472 75.6317 167.226 75.8772C 167.98 76.1227 168.806 75.9959 169.452 75.5354L 168 73.5ZM 232.5 27.5L 234.878 28.2716C 235.211 27.2455 234.848 26.1215 233.978 25.4837C 233.108 24.8459 231.927 24.8382 231.048 25.4646L 232.5 27.5ZM 208 103L 205.622 102.228C 205.375 102.989 205.507 103.823 205.978 104.47C 206.448 105.117 207.2 105.5 208 105.5L 208 103ZM 286.5 105.5C 287.881 105.5 289 104.381 289 103C 289 101.619 287.881 100.5 286.5 100.5L 286.5 105.5ZM 287.5 198C 288.881 198 290 196.881 290 195.5C 290 194.119 288.881 193 287.5 193L 287.5 198ZM 207.5 195.5L 207.5 193C 206.7 193 205.948 193.383 205.478 194.03C 205.007 194.677 204.875 195.511 205.122 196.272L 207.5 195.5ZM 232 271L 230.544 273.032C 231.422 273.661 232.604 273.655 233.476 273.018C 234.347 272.381 234.711 271.255 234.378 270.228L 232 271ZM 168.5 225.5L 169.956 223.468C 169.308 223.003 168.477 222.876 167.719 223.125C 166.961 223.374 166.368 223.97 166.122 224.729L 168.5 225.5ZM 144.5 299.5L 142.122 300.272C 142.456 301.302 143.417 302 144.5 302C 145.584 302 146.544 301.302 146.878 300.271L 144.5 299.5ZM 120 224L 122.378 223.228C 122.13 222.466 121.532 221.868 120.77 221.621C 120.007 221.375 119.172 221.509 118.525 221.982L 120 224ZM 55 271.5L 52.6221 270.728C 52.2874 271.76 52.6556 272.889 53.5337 273.525C 54.4118 274.161 55.5997 274.158 56.475 273.518L 55 271.5ZM 79.5 196L 81.8779 196.772C 82.1249 196.011 81.9927 195.177 81.5223 194.53C 81.0519 193.883 80.3001 193.5 79.5 193.5L 79.5 196ZM 0 193.5C -1.38071 193.5 -2.5 194.619 -2.5 196C -2.5 197.381 -1.38071 198.5 0 198.5L 0 193.5ZM 0 100.5C -1.38071 100.5 -2.5 101.619 -2.5 103C -2.5 104.381 -1.38071 105.5 0 105.5L 0 100.5ZM 80 103L 80 105.5C 80.8001 105.5 81.5519 105.117 82.0223 104.47C 82.4927 103.823 82.6249 102.989 82.3779 102.228L 80 103ZM 55.5 27.5L 56.9666 25.4754C 56.0902 24.8405 54.9047 24.8416 54.0295 25.4782C 53.1543 26.1148 52.788 27.2422 53.1221 28.2716L 55.5 27.5ZM 119 73.5L 117.533 75.5246C 118.178 75.9917 119.007 76.1237 119.765 75.88C 120.523 75.6363 121.12 75.046 121.372 74.2906L 119 73.5ZM 147 291.792L 144.622 291.02L 144.622 291.02L 147 291.792ZM 141.128 0.790569L 165.628 74.2906L 170.372 72.7094L 145.872 -0.790569L 141.128 0.790569ZM 169.452 75.5354L 233.952 29.5354L 231.048 25.4646L 166.548 71.4646L 169.452 75.5354ZM 230.122 26.7284L 205.622 102.228L 210.378 103.772L 234.878 28.2716L 230.122 26.7284ZM 208 105.5L 286.5 105.5L 286.5 100.5L 208 100.5L 208 105.5ZM 287.5 193L 207.5 193L 207.5 198L 287.5 198L 287.5 193ZM 205.122 196.272L 229.622 271.772L 234.378 270.228L 209.878 194.728L 205.122 196.272ZM 233.456 268.968L 169.956 223.468L 167.044 227.532L 230.544 273.032L 233.456 268.968ZM 146.878 298.728L 122.378 223.228L 117.622 224.772L 142.122 300.272L 146.878 298.728ZM 118.525 221.982L 53.525 269.482L 56.475 273.518L 121.475 226.018L 118.525 221.982ZM 57.3779 272.272L 81.8779 196.772L 77.1221 195.228L 52.6221 270.728L 57.3779 272.272ZM 79.5 193.5L 0 193.5L 0 198.5L 79.5 198.5L 79.5 193.5ZM 0 105.5L 80 105.5L 80 100.5L 0 100.5L 0 105.5ZM 82.3779 102.228L 57.8779 26.7284L 53.1221 28.2716L 77.6221 103.772L 82.3779 102.228ZM 54.0334 29.5246L 117.533 75.5246L 120.467 71.4754L 56.9666 25.4754L 54.0334 29.5246ZM 121.372 74.2906L 145.872 0.790569L 141.128 -0.790569L 116.628 72.7094L 121.372 74.2906ZM 166.122 224.729L 144.622 291.02L 149.378 292.563L 170.878 226.271L 166.122 224.729ZM 144.622 291.02L 142.122 298.729L 146.878 300.271L 149.378 292.563L 144.622 291.02Z"/>
<path id="path1_fill" d="M 81.3782 54.6L 81.3782 12.6L 87.0482 12.6L 87.0482 54.6C 87.0482 56.9333 86.2315 58.9167 84.5982 60.55C 82.9648 62.1833 80.9815 63 78.6482 63L 45.0482 63C 42.7148 63 40.7315 62.1833 39.0982 60.55C 37.4648 58.9167 36.6482 56.9333 36.6482 54.6L 36.6482 50.61L 42.3182 50.61L 42.3182 54.6C 42.3182 55.3467 42.5748 56 43.0882 56.56C 43.6482 57.0733 44.3015 57.33 45.0482 57.33L 78.6482 57.33C 79.3948 57.33 80.0248 57.0733 80.5382 56.56C 81.0982 56 81.3782 55.3467 81.3782 54.6ZM 142.68 37.52L 163.61 12.6L 171.38 12.6L 171.38 63L 165.71 63L 165.71 19.04L 142.68 46.41L 119.65 19.04L 119.65 63L 113.98 63L 113.98 12.6L 121.75 12.6L 142.68 37.52ZM 248.253 18.27L 206.393 18.27C 205.647 18.27 204.993 18.55 204.433 19.11C 203.92 19.6233 203.663 20.2533 203.663 21L 203.663 54.6C 203.663 55.3467 203.92 56 204.433 56.56C 204.993 57.0733 205.647 57.33 206.393 57.33L 248.253 57.33L 248.253 63L 206.393 63C 204.06 63 202.077 62.1833 200.443 60.55C 198.81 58.9167 197.993 56.9333 197.993 54.6L 197.993 21C 197.993 18.6667 198.81 16.6833 200.443 15.05C 202.077 13.4167 204.06 12.6 206.393 12.6L 248.253 12.6L 248.253 18.27Z"/>
<path id="path2_stroke" d="M 0 1L 79 1L 79 -1L 0 -1L 0 1Z"/>
</defs>
</svg>
