<?xml version="1.0" ?><svg enable-background="new 0 0 32 32" version="1.1" viewBox="0 0 32 32" xml:space="preserve" xmlns="http://www.w3.org/2000/svg" xmlns:xlink="http://www.w3.org/1999/xlink"><g id="GLYPH"><g><g><polygon points="29.935,13.935 18.065,2.065 17.958,3.604 28.395,14.043    "/></g><g><polygon points="2.065,18.065 13.937,29.937 14.044,28.395 3.607,17.957    "/></g></g><g><g><path d="M30.403,14.403l-2.2,0.155L17.442,3.798l0.154-2.201L16,0L0,16l1.596,1.596l2.202-0.155l10.761,10.761l-0.155,2.203     L16,32l16-16L30.403,14.403z M13.727,20.734h-2.574v-7.746h2.574V20.734z M12.44,11.931h-0.016c-0.864,0-1.423-0.595-1.423-1.339     c0-0.76,0.576-1.338,1.456-1.338c0.88,0,1.423,0.578,1.44,1.338C13.896,11.336,13.337,11.931,12.44,11.931z M23.01,20.734     L23.01,20.734l-2.574,0V16.59c0-1.041-0.372-1.751-1.304-1.751c-0.711,0-1.135,0.479-1.32,0.942     c-0.068,0.165-0.085,0.397-0.085,0.628v4.326h-2.575c0,0,0.034-7.019,0-7.746h2.575v1.097c0.341-0.527,0.954-1.279,2.32-1.279     c1.693,0,2.964,1.107,2.964,3.487V20.734z"/></g></g></g></svg>