<?xml version="1.0" ?><svg enable-background="new 0 0 32 32" version="1.1" viewBox="0 0 32 32" xml:space="preserve" xmlns="http://www.w3.org/2000/svg" xmlns:xlink="http://www.w3.org/1999/xlink"><g id="GLYPH"><g><g><polygon points="29.935,13.935 18.065,2.065 17.958,3.604 28.395,14.043    "/></g><g><polygon points="2.065,18.065 13.937,29.937 14.044,28.395 3.607,17.957    "/></g></g><g><g><path d="M30.403,14.403l-2.2,0.155L17.442,3.798l0.154-2.201L16,0L0,16l1.596,1.596l2.202-0.155L14.56,28.202l-0.155,2.203L16,32     l16-16L30.403,14.403z M22.499,12.05c-0.057,0.096-0.35,0.43-0.662,0.736c-0.53,0.526-0.558,0.583-0.558,1.023     c0,0.679-0.321,2.094-0.643,2.869c-0.596,1.454-1.873,2.956-3.15,3.712c-1.797,1.061-4.191,1.33-6.206,0.708     c-0.671-0.211-1.826-0.746-1.826-0.842c0-0.029,0.35-0.067,0.776-0.077c0.889-0.019,1.779-0.267,2.535-0.707l0.511-0.306     l-0.586-0.2c-0.833-0.287-1.58-0.947-1.769-1.569c-0.057-0.201-0.038-0.211,0.492-0.211l0.549-0.01l-0.464-0.22     c-0.549-0.278-1.05-0.746-1.296-1.224c-0.18-0.344-0.406-1.214-0.34-1.282c0.019-0.028,0.218,0.029,0.445,0.105     c0.652,0.239,0.738,0.182,0.359-0.22c-0.709-0.727-0.927-1.808-0.586-2.831l0.161-0.459l0.624,0.622     c1.277,1.253,2.782,1.999,4.503,2.219l0.473,0.057l-0.028-0.469c-0.085-1.214,0.662-2.324,1.845-2.754     c0.435-0.153,1.173-0.172,1.656-0.038c0.19,0.057,0.549,0.249,0.804,0.421l0.464,0.316l0.511-0.163     c0.284-0.086,0.662-0.229,0.833-0.325c0.161-0.086,0.303-0.134,0.303-0.105c0,0.163-0.35,0.717-0.643,1.023     c-0.398,0.43-0.284,0.469,0.52,0.181C22.584,11.868,22.594,11.868,22.499,12.05z"/></g></g></g></svg>