<svg width="74" height="59" viewBox="0 0 74 59" fill="none" xmlns="http://www.w3.org/2000/svg">
<path d="M14.9189 29.8106C23.1584 29.8106 29.8378 23.1372 29.8378 14.9053C29.8378 6.67332 23.1584 0 14.9189 0C6.67943 0 0 6.67332 0 14.9053C0 23.1372 6.67943 29.8106 14.9189 29.8106Z" transform="translate(36.4946)" fill="#52C1FF"/>
<path d="M38.6702 2.46734C37.8928 2.46734 36.4946 4.07831 36.4946 4.95164C36.4946 13.352 33.1545 21.4084 27.2091 27.3484C21.2637 33.2883 13.2 36.6254 4.79192 36.6254C3.1868 36.6132 1.58491 36.4795 -1.45693e-07 36.2255C6.40822 40.5275 13.8665 43.0079 21.5769 43.4015C29.2874 43.795 36.9598 42.0868 43.7735 38.4597C50.5871 34.8326 56.2856 29.423 60.2592 22.8097C64.2329 16.1963 66.3321 8.62809 66.3325 0.914659C66.3325 -1.82653 48.8683 2.46734 38.6702 2.46734Z" transform="translate(0 15.543)" fill="#52C1FF"/>
<path d="M34.4378 15.0096C28.2654 15.0128 22.1666 13.6716 16.5661 11.0793C10.9656 8.4871 5.9981 4.7062 2.00954 -8.4777e-07C0.707966 2.22286 0.0149043 4.74884 -3.55695e-07 7.32408C9.53588e-06 11.2566 1.56363 15.0281 4.34689 17.8088C7.13015 20.5896 10.9051 22.1518 14.8412 22.1518C22.7662 22.1518 36.8408 22.2362 37.7675 14.8416C36.6653 14.9271 35.5619 15.0096 34.4378 15.0096Z" transform="translate(4.23242 3.00122)" fill="#52C1FF"/>
<path d="M7.07108 3.21109C4.6029 3.19492 2.17868 2.557 0.0227516 1.35636C0.0215953 1.43301 4.3224e-07 1.50395 4.3224e-07 1.58083C1.03241e-05 5.51339 1.56365 9.28487 4.34693 12.0656C7.13021 14.8463 10.9051 16.4086 14.8413 16.4086C23.0379 16.4086 34.5156 10.4688 34.5156 2.27966C34.5156 -3.34585 15.1907 3.21109 7.07108 3.21109Z" transform="translate(4.23242 19.302)" fill="#52C1FF"/>
<path d="M11.2977 7.40627C9.64399 8.47677 7.79029 9.20133 5.84852 9.5362C3.90676 9.87106 1.91721 9.80929 -7.39845e-09 9.35462C0.89468 12.4189 2.75828 15.1115 5.31205 17.0296C7.86582 18.9478 10.9725 19.9883 14.1675 19.9957C18.6226 19.5212 22.7808 17.537 25.9503 14.3732C29.1197 11.2094 31.1095 7.05679 31.5883 2.60618C31.5883 -4.4498 15.4074 4.76949 11.2977 7.40627Z" transform="translate(9.25781 26.1179)" fill="#52C1FF"/>
<path d="M4.10843 3.91942C-0.822793 3.91942 -1.99199 10.1066 4.38816 10.1066C7.48749 10.0997 10.5064 9.12045 13.0186 7.30703C15.5309 5.49361 17.4096 2.93766 18.3896 4.19052e-07C14.0682 2.5648 9.13483 3.91873 4.10843 3.91942Z" transform="translate(53.3116 1.21997)" fill="#52C1FF"/>
<path d="M21.0881 2.90695C17.3251 2.91183 13.5996 2.16035 10.1333 0.697238C0.032033 -3.5713 -6.11065 13.1543 9.4327 13.1543C14.1547 13.1542 18.8005 11.9653 22.941 9.69721C27.0816 7.42917 30.5832 4.15522 33.1226 0.177789C29.3643 1.97092 25.2529 2.9033 21.0881 2.90695Z" transform="translate(40.8772 6.54102)" fill="#52C1FF"/>
</svg>
