<svg width="84" height="59" viewBox="0 0 84 59" fill="none" xmlns="http://www.w3.org/2000/svg">
<path d="M83.1907 47.1789C82.9441 49.9406 81.7358 52.5269 79.7779 54.4836C77.8201 56.4404 75.2379 57.6426 72.4846 57.8792C65.9006 58.4274 56.1417 59 44.1004 59C29.5957 59 18.6477 58.4052 11.5714 57.8476C8.80736 57.6256 6.21053 56.4302 4.23998 54.4727C2.26944 52.5152 1.05209 49.9216 0.803124 47.1505C0.372246 42.634 0 36.7006 0 29.6783C0 22.4768 0.37527 16.437 0.808542 11.8633C1.05503 9.08971 2.27134 6.49306 4.24223 4.53275C6.21313 2.57244 8.81156 1.37486 11.5778 1.15189C18.6541 0.594468 29.5998 0 44.1004 0C56.1418 0 65.9006 0.572596 72.4846 1.12079C75.2379 1.35739 77.8201 2.55961 79.7779 4.51637C81.7358 6.47314 82.9441 9.05939 83.1907 11.8211C83.6243 16.3704 84 22.3697 84 29.5C84 36.6303 83.6243 42.6296 83.1907 47.1789Z" fill="#E0E0E0"/>
<path d="M9.61304e-08 24.7716V-5.46592e-07L24.3516 12.3858L9.61304e-08 24.7716Z" transform="translate(32.6592 17.1143)" fill="white"/>
</svg>
