<svg width="132" height="4" fill="none" xmlns="http://www.w3.org/2000/svg">
<path d="M6.29283 2.3673L5.93928 2.01375L5.93928 2.01375L6.29283 2.3673ZM7.36711 1.29302L7.01356 0.939469L7.01356 0.939469L7.36711 1.29302ZM0.646447 2.30658C0.451184 2.50184 0.451184 2.81842 0.646447 3.01369C0.841709 3.20895 1.15829 3.20895 1.35355 3.01369L0.646447 2.30658ZM2.36711 1.29302L2.72066 1.64658L2.72066 1.64658L2.36711 1.29302ZM3.75319 1.27938L4.1243 0.944303L4.1243 0.944303L3.75319 1.27938ZM4.70212 2.33036L5.07323 1.99529L5.07323 1.99529L4.70212 2.33036ZM3.63367 1.17122L3.35362 1.58544L3.35362 1.58544L3.63367 1.17122ZM5.58587 2.66019L5.5858 2.16019L5.5858 2.16019L5.58587 2.66019ZM5.44449 2.66021L5.44457 3.16021L5.44457 3.16021L5.44449 2.66021ZM16.2928 2.36718L16.6464 2.72073L16.6464 2.72073L16.2928 2.36718ZM17.3671 1.2929L17.0136 0.939347L17.0136 0.939347L17.3671 1.2929ZM12.3671 1.2929L12.0136 0.939347L12.0136 0.939347L12.3671 1.2929ZM13.7532 1.27926L14.1243 0.944181L14.1243 0.944181L13.7532 1.27926ZM14.7021 2.33024L15.0732 1.99517L15.0732 1.99517L14.7021 2.33024ZM13.6337 1.1711L13.3536 1.58531L13.3536 1.58531L13.6337 1.1711ZM15.5859 2.66007L15.5858 2.16007L15.5858 2.16007L15.5859 2.66007ZM15.4445 2.66009L15.4446 3.16009L15.4446 3.16009L15.4445 2.66009ZM26.2928 2.36718L25.9393 2.01362L25.9393 2.01362L26.2928 2.36718ZM27.3671 1.2929L27.7207 1.64645L27.7207 1.64645L27.3671 1.2929ZM28.6989 1.21914L28.3866 1.60957L28.3866 1.60957L28.6989 1.21914ZM30.1877 3.05044C30.4033 3.22295 30.7179 3.18799 30.8904 2.97236C31.0629 2.75673 31.028 2.44208 30.8123 2.26958L30.1877 3.05044ZM22.3671 1.2929L22.0136 0.939347L22.0136 0.939347L22.3671 1.2929ZM23.7532 1.27926L24.1243 0.944181L24.1243 0.944181L23.7532 1.27926ZM24.7021 2.33024L25.0732 1.99517L25.0732 1.99517L24.7021 2.33024ZM23.6337 1.1711L23.3536 1.58531L23.3536 1.58531L23.6337 1.1711ZM25.5859 2.66007L25.5858 2.16007L25.5858 2.16007L25.5859 2.66007ZM25.4445 2.66009L25.4446 3.16009L25.4446 3.16009L25.4445 2.66009ZM21.2928 2.36718L20.9393 2.01362L21.2928 2.36718ZM11.2928 2.36718L11.6464 2.72073L11.2928 2.36718ZM9.70213 2.33027L10.0732 1.99518L9.70213 2.33027ZM10.4445 2.66009L10.4444 2.16009L10.4445 2.66009ZM19.7021 2.33024L19.331 2.66532L19.7021 2.33024ZM18.7532 1.27926L18.3821 1.61433L18.7532 1.27926ZM18.6337 1.1711L18.3536 1.58531L18.6337 1.1711ZM8.75318 1.27936L9.12428 0.94427L8.75318 1.27936ZM8.63368 1.17123L8.35363 1.58544L8.63368 1.17123ZM6.64639 2.72085L7.72066 1.64658L7.01356 0.939469L5.93928 2.01375L6.64639 2.72085ZM8.38208 1.61445L9.33103 2.66537L10.0732 1.99518L9.12428 0.94427L8.38208 1.61445ZM7.72066 1.64658C7.89107 1.47617 8.15727 1.45268 8.35363 1.58544L8.91373 0.757019C8.32339 0.357883 7.52526 0.427766 7.01356 0.939469L7.72066 1.64658ZM1.35355 3.01369L2.72066 1.64658L2.01356 0.939469L0.646447 2.30658L1.35355 3.01369ZM3.38208 1.61445L4.33101 2.66544L5.07323 1.99529L4.1243 0.944303L3.38208 1.61445ZM2.72066 1.64658C2.89106 1.47617 3.15726 1.45268 3.35362 1.58544L3.91371 0.757001C3.32337 0.357885 2.52525 0.427773 2.01356 0.939469L2.72066 1.64658ZM5.5858 2.16019L5.44442 2.16021L5.44457 3.16021L5.58595 3.16019L5.5858 2.16019ZM4.33101 2.66544C4.61547 2.98049 5.0201 3.16028 5.44457 3.16021L5.44442 2.16021C5.30293 2.16023 5.16805 2.10031 5.07323 1.99529L4.33101 2.66544ZM4.1243 0.944303C4.07633 0.891169 4.00647 0.819712 3.91371 0.757001L3.35362 1.58544C3.35112 1.58375 3.35229 1.58422 3.35746 1.58899C3.36278 1.5939 3.37059 1.60173 3.38208 1.61446L4.1243 0.944303ZM5.93928 2.01375C5.84553 2.1075 5.71838 2.16017 5.5858 2.16019L5.58595 3.16019C5.98369 3.16013 6.36514 3.0021 6.64639 2.72085L5.93928 2.01375ZM16.6464 2.72073L17.7207 1.64645L17.0136 0.939347L15.9393 2.01362L16.6464 2.72073ZM18.3821 1.61433L19.331 2.66532L20.0732 1.99517L19.1243 0.944181L18.3821 1.61433ZM17.7207 1.64645C17.8911 1.47605 18.1573 1.45256 18.3536 1.58531L18.9137 0.756879C18.3234 0.357762 17.5253 0.427651 17.0136 0.939347L17.7207 1.64645ZM11.6464 2.72073L12.7207 1.64645L12.0136 0.939347L10.9393 2.01362L11.6464 2.72073ZM13.3821 1.61433L14.331 2.66532L15.0732 1.99517L14.1243 0.944181L13.3821 1.61433ZM12.7207 1.64645C12.8911 1.47605 13.1573 1.45256 13.3536 1.58531L13.9137 0.756879C13.3234 0.357763 12.5253 0.427651 12.0136 0.939347L12.7207 1.64645ZM15.5858 2.16007L15.4444 2.16009L15.4446 3.16009L15.5859 3.16007L15.5858 2.16007ZM14.331 2.66532C14.6155 2.98037 15.0201 3.16015 15.4446 3.16009L15.4444 2.16009C15.3029 2.16011 15.1681 2.10018 15.0732 1.99517L14.331 2.66532ZM14.1243 0.944181C14.0763 0.891047 14.0065 0.81959 13.9137 0.756879L13.3536 1.58531C13.3511 1.58362 13.3523 1.5841 13.3575 1.58887C13.3628 1.59378 13.3706 1.60161 13.3821 1.61433L14.1243 0.944181ZM15.9393 2.01362C15.8455 2.10737 15.7184 2.16005 15.5858 2.16007L15.5859 3.16007C15.9837 3.16001 16.3651 3.00198 16.6464 2.72073L15.9393 2.01362ZM26.6464 2.72073L27.7207 1.64645L27.0136 0.939346L25.9393 2.01362L26.6464 2.72073ZM28.3866 1.60957L30.1877 3.05044L30.8123 2.26958L29.0113 0.828704L28.3866 1.60957ZM27.7207 1.64645C27.9008 1.4663 28.1876 1.45042 28.3866 1.60957L29.0113 0.828704C28.4144 0.351235 27.554 0.398888 27.0136 0.939347L27.7207 1.64645ZM21.6464 2.72073L22.7207 1.64645L22.0136 0.939347L20.9393 2.01362L21.6464 2.72073ZM23.3821 1.61433L24.331 2.66532L25.0732 1.99517L24.1243 0.944181L23.3821 1.61433ZM22.7207 1.64645C22.8911 1.47605 23.1573 1.45256 23.3536 1.58531L23.9137 0.756879C23.3234 0.357763 22.5253 0.427651 22.0136 0.939347L22.7207 1.64645ZM25.5858 2.16007L25.4444 2.16009L25.4446 3.16009L25.5859 3.16007L25.5858 2.16007ZM24.331 2.66532C24.6155 2.98037 25.0201 3.16015 25.4446 3.16009L25.4444 2.16009C25.3029 2.16011 25.1681 2.10018 25.0732 1.99517L24.331 2.66532ZM24.1243 0.944181C24.0763 0.891047 24.0065 0.81959 23.9137 0.756879L23.3536 1.58531C23.3511 1.58362 23.3523 1.5841 23.3575 1.58887C23.3628 1.59378 23.3706 1.60161 23.3821 1.61433L24.1243 0.944181ZM25.9393 2.01362C25.8455 2.10737 25.7184 2.16005 25.5858 2.16007L25.5859 3.16007C25.9837 3.16001 26.3651 3.00198 26.6464 2.72073L25.9393 2.01362ZM10.4445 3.16009L10.5859 3.16007L10.5858 2.16007L10.4444 2.16009L10.4445 3.16009ZM20.4446 3.16009L20.5859 3.16007L20.5858 2.16007L20.4444 2.16009L20.4446 3.16009ZM20.9393 2.01362C20.8455 2.10737 20.7184 2.16005 20.5858 2.16007L20.5859 3.16007C20.9837 3.16001 21.3651 3.00198 21.6464 2.72073L20.9393 2.01362ZM10.9393 2.01362C10.8455 2.10737 10.7184 2.16005 10.5858 2.16007L10.5859 3.16007C10.9837 3.16001 11.3651 3.00198 11.6464 2.72073L10.9393 2.01362ZM9.33103 2.66537C9.61549 2.98039 10.0201 3.16015 10.4445 3.16009L10.4444 2.16009C10.3029 2.16011 10.168 2.10019 10.0732 1.99518L9.33103 2.66537ZM19.331 2.66532C19.6155 2.98037 20.0201 3.16015 20.4446 3.16009L20.4444 2.16009C20.3029 2.16011 20.1681 2.10018 20.0732 1.99517L19.331 2.66532ZM19.1243 0.944181C19.0763 0.891046 19.0065 0.81959 18.9137 0.756879L18.3536 1.58531C18.3511 1.58362 18.3523 1.5841 18.3575 1.58887C18.3628 1.59378 18.3706 1.60161 18.3821 1.61433L19.1243 0.944181ZM9.12428 0.94427C9.07631 0.891151 9.00647 0.819716 8.91373 0.757019L8.35363 1.58544C8.35113 1.58375 8.3523 1.58422 8.35747 1.58899C8.36278 1.5939 8.37059 1.60173 8.38208 1.61445L9.12428 0.94427Z" fill="#FF4848"/>
<path d="M31.3981 2.3673L31.0446 2.01375L31.0446 2.01375L31.3981 2.3673ZM32.4724 1.29302L32.1189 0.939469L32.1189 0.939469L32.4724 1.29302ZM30.6912 2.66019L30.6911 2.16019L30.6911 2.16019L30.6912 2.66019ZM30.5497 2.16021C30.2736 2.16025 30.0498 2.38414 30.0498 2.66029C30.0498 2.93643 30.2737 3.16025 30.5499 3.16021L30.5497 2.16021ZM41.3981 2.36718L41.7517 2.72073L41.7517 2.72073L41.3981 2.36718ZM42.4724 1.2929L42.1189 0.939347L42.1189 0.939347L42.4724 1.2929ZM37.4724 1.2929L37.1189 0.939347L37.1189 0.939347L37.4724 1.2929ZM38.8585 1.27926L39.2296 0.944181L39.2296 0.944181L38.8585 1.27926ZM39.8074 2.33024L40.1785 1.99517L40.1785 1.99517L39.8074 2.33024ZM38.739 1.1711L38.4589 1.58531L38.4589 1.58531L38.739 1.1711ZM40.6912 2.66007L40.6911 2.16007L40.6911 2.16007L40.6912 2.66007ZM40.5498 2.66009L40.5499 3.16009L40.5499 3.16009L40.5498 2.66009ZM51.3981 2.36718L51.7517 2.72073L51.7517 2.72073L51.3981 2.36718ZM52.4724 1.2929L52.1189 0.939347L52.1189 0.939347L52.4724 1.2929ZM53.8042 1.21914L53.4919 1.60957L53.4919 1.60957L53.8042 1.21914ZM55.293 3.05044C55.5086 3.22295 55.8232 3.18799 55.9957 2.97236C56.1683 2.75673 56.1333 2.44208 55.9177 2.26958L55.293 3.05044ZM47.4724 1.2929L47.1189 0.939347L47.1189 0.939347L47.4724 1.2929ZM48.8585 1.27926L48.4874 1.61433L48.4874 1.61433L48.8585 1.27926ZM49.8074 2.33024L50.1785 1.99517L50.1785 1.99517L49.8074 2.33024ZM48.739 1.1711L48.4589 1.58531L48.4589 1.58531L48.739 1.1711ZM50.6912 2.66007L50.6911 2.16007L50.6911 2.16007L50.6912 2.66007ZM50.5498 2.66009L50.5499 3.16009L50.5499 3.16009L50.5498 2.66009ZM46.3981 2.36718L46.7517 2.72073L46.3981 2.36718ZM45.6912 2.66007L45.6911 2.16007L45.6912 2.66007ZM36.3981 2.36718L36.0446 2.01362L36.3981 2.36718ZM44.8074 2.33024L45.1785 1.99517L44.8074 2.33024ZM45.5498 2.66009L45.5499 3.16009L45.5498 2.66009ZM43.8585 1.27926L44.2296 0.944181L43.8585 1.27926ZM43.739 1.1711L43.4589 1.58531L43.739 1.1711ZM34.8074 2.33027L35.1785 1.99518L34.8074 2.33027ZM35.5498 2.66009L35.5497 2.16009L35.5498 2.66009ZM33.8585 1.27936L33.4874 1.61445L33.8585 1.27936ZM33.739 1.17123L34.019 0.757019L33.739 1.17123ZM31.7517 2.72085L32.826 1.64658L32.1189 0.939469L31.0446 2.01375L31.7517 2.72085ZM33.4874 1.61445L34.4363 2.66537L35.1785 1.99518L34.2296 0.94427L33.4874 1.61445ZM32.826 1.64658C32.9964 1.47617 33.2626 1.45268 33.4589 1.58544L34.019 0.757019C33.4287 0.357883 32.6306 0.427766 32.1189 0.939469L32.826 1.64658ZM30.6911 2.16019L30.5497 2.16021L30.5499 3.16021L30.6913 3.16019L30.6911 2.16019ZM31.0446 2.01375C30.9508 2.1075 30.8237 2.16017 30.6911 2.16019L30.6913 3.16019C31.089 3.16013 31.4704 3.0021 31.7517 2.72085L31.0446 2.01375ZM41.7517 2.72073L42.826 1.64645L42.1189 0.939347L41.0446 2.01362L41.7517 2.72073ZM43.4874 1.61433L44.4363 2.66532L45.1785 1.99517L44.2296 0.944181L43.4874 1.61433ZM42.826 1.64645C42.9964 1.47605 43.2626 1.45256 43.4589 1.58531L44.019 0.756879C43.4287 0.357762 42.6306 0.427651 42.1189 0.939347L42.826 1.64645ZM36.7517 2.72073L37.826 1.64645L37.1189 0.939347L36.0446 2.01362L36.7517 2.72073ZM38.4874 1.61433L39.4363 2.66532L40.1785 1.99517L39.2296 0.944181L38.4874 1.61433ZM37.826 1.64645C37.9964 1.47605 38.2626 1.45256 38.4589 1.58531L39.019 0.756879C38.4287 0.357763 37.6306 0.427651 37.1189 0.939347L37.826 1.64645ZM40.6911 2.16007L40.5497 2.16009L40.5499 3.16009L40.6913 3.16007L40.6911 2.16007ZM39.4363 2.66532C39.7208 2.98037 40.1254 3.16015 40.5499 3.16009L40.5497 2.16009C40.4082 2.16011 40.2734 2.10018 40.1785 1.99517L39.4363 2.66532ZM39.2296 0.944181C39.1816 0.891047 39.1118 0.81959 39.019 0.756879L38.4589 1.58531C38.4564 1.58362 38.4576 1.5841 38.4628 1.58887C38.4681 1.59378 38.4759 1.60161 38.4874 1.61433L39.2296 0.944181ZM41.0446 2.01362C40.9508 2.10737 40.8237 2.16005 40.6911 2.16007L40.6913 3.16007C41.089 3.16001 41.4704 3.00198 41.7517 2.72073L41.0446 2.01362ZM51.7517 2.72073L52.826 1.64645L52.1189 0.939347L51.0446 2.01362L51.7517 2.72073ZM53.4919 1.60957L55.293 3.05044L55.9177 2.26958L54.1166 0.828704L53.4919 1.60957ZM52.826 1.64645C53.0061 1.4663 53.2929 1.45042 53.4919 1.60957L54.1166 0.828704C53.5197 0.351235 52.6593 0.398888 52.1189 0.939347L52.826 1.64645ZM46.7517 2.72073L47.826 1.64645L47.1189 0.939347L46.0446 2.01362L46.7517 2.72073ZM48.4874 1.61433L49.4363 2.66532L50.1785 1.99517L49.2296 0.944181L48.4874 1.61433ZM47.826 1.64645C47.9964 1.47605 48.2626 1.45256 48.4589 1.58531L49.019 0.756879C48.4287 0.357763 47.6306 0.427651 47.1189 0.939347L47.826 1.64645ZM50.6911 2.16007L50.5497 2.16009L50.5499 3.16009L50.6913 3.16007L50.6911 2.16007ZM49.4363 2.66532C49.7208 2.98037 50.1254 3.16015 50.5499 3.16009L50.5497 2.16009C50.4082 2.16011 50.2734 2.10018 50.1785 1.99517L49.4363 2.66532ZM49.2296 0.944181C49.1816 0.891047 49.1118 0.81959 49.019 0.756879L48.4589 1.58531C48.4564 1.58362 48.4576 1.5841 48.4628 1.58887C48.4681 1.59378 48.4759 1.60161 48.4874 1.61433L49.2296 0.944181ZM51.0446 2.01362C50.9508 2.10737 50.8237 2.16005 50.6911 2.16007L50.6913 3.16007C51.089 3.16001 51.4704 3.00198 51.7517 2.72073L51.0446 2.01362ZM35.5499 3.16009L35.6913 3.16007L35.6911 2.16007L35.5497 2.16009L35.5499 3.16009ZM45.5499 3.16009L45.6913 3.16007L45.6911 2.16007L45.5497 2.16009L45.5499 3.16009ZM46.0446 2.01362C45.9508 2.10737 45.8237 2.16005 45.6911 2.16007L45.6913 3.16007C46.089 3.16001 46.4704 3.00198 46.7517 2.72073L46.0446 2.01362ZM36.0446 2.01362C35.9508 2.10737 35.8237 2.16005 35.6911 2.16007L35.6913 3.16007C36.089 3.16001 36.4704 3.00198 36.7517 2.72073L36.0446 2.01362ZM44.4363 2.66532C44.7208 2.98037 45.1254 3.16015 45.5499 3.16009L45.5497 2.16009C45.4082 2.16011 45.2734 2.10018 45.1785 1.99517L44.4363 2.66532ZM44.2296 0.944181C44.1816 0.891046 44.1118 0.81959 44.019 0.756879L43.4589 1.58531C43.4564 1.58362 43.4576 1.5841 43.4628 1.58887C43.4681 1.59378 43.4759 1.60161 43.4874 1.61433L44.2296 0.944181ZM34.4363 2.66537C34.7208 2.98039 35.1254 3.16015 35.5499 3.16009L35.5497 2.16009C35.4082 2.16011 35.2734 2.10019 35.1785 1.99518L34.4363 2.66537ZM34.2296 0.94427C34.1816 0.891151 34.1118 0.819716 34.019 0.757019L33.4589 1.58544C33.4564 1.58375 33.4576 1.58422 33.4628 1.58899C33.4681 1.5939 33.4759 1.60173 33.4874 1.61445L34.2296 0.94427Z" fill="#FF4848"/>
<path d="M56.5085 2.3673L56.1549 2.01375L56.1549 2.01375L56.5085 2.3673ZM57.5828 1.29302L57.2292 0.939469L57.2292 0.939469L57.5828 1.29302ZM55.8015 2.66019L55.8015 2.16019L55.8015 2.16019L55.8015 2.66019ZM55.6601 2.16021C55.3839 2.16025 55.1601 2.38414 55.1602 2.66029C55.1602 2.93643 55.3841 3.16025 55.6602 3.16021L55.6601 2.16021ZM66.5085 2.36718L66.862 2.72073L66.862 2.72073L66.5085 2.36718ZM67.5828 1.2929L67.2292 0.939347L67.2292 0.939347L67.5828 1.2929ZM62.5828 1.2929L62.2292 0.939347L62.2292 0.939347L62.5828 1.2929ZM63.9689 1.27926L64.34 0.944181L64.34 0.944181L63.9689 1.27926ZM64.9178 2.33024L65.2889 1.99517L65.2889 1.99517L64.9178 2.33024ZM63.8493 1.1711L63.5693 1.58531L63.5693 1.58531L63.8493 1.1711ZM65.8015 2.66007L65.8015 2.16007L65.8015 2.16007L65.8015 2.66007ZM65.6602 2.66009L65.6602 3.16009L65.6602 3.16009L65.6602 2.66009ZM76.5085 2.36718L76.862 2.72073L76.862 2.72073L76.5085 2.36718ZM77.5828 1.2929L77.2292 0.939347L77.2292 0.939347L77.5828 1.2929ZM78.9146 1.21914L78.6022 1.60957L78.6022 1.60957L78.9146 1.21914ZM80.4033 3.05044C80.6189 3.22295 80.9336 3.18799 81.1061 2.97236C81.2786 2.75673 81.2436 2.44208 81.028 2.26958L80.4033 3.05044ZM72.5828 1.2929L72.2292 0.939347L72.2292 0.939347L72.5828 1.2929ZM73.9689 1.27926L73.5977 1.61433L73.5977 1.61433L73.9689 1.27926ZM74.9178 2.33024L75.2889 1.99517L75.2889 1.99517L74.9178 2.33024ZM73.8493 1.1711L73.5693 1.58531L73.5693 1.58531L73.8493 1.1711ZM75.8015 2.66007L75.8015 2.16007L75.8015 2.16007L75.8015 2.66007ZM75.6602 2.66009L75.6602 3.16009L75.6602 3.16009L75.6602 2.66009ZM71.5085 2.36718L71.862 2.72073L71.5085 2.36718ZM70.8015 2.66007L70.8015 2.16007L70.8015 2.66007ZM61.5085 2.36718L61.1549 2.01362L61.5085 2.36718ZM69.9178 2.33024L70.2889 1.99517L69.9178 2.33024ZM70.6602 2.66009L70.6602 3.16009L70.6602 2.66009ZM68.9689 1.27926L69.34 0.944181L68.9689 1.27926ZM68.8493 1.1711L68.5693 1.58531L68.8493 1.1711ZM59.9178 2.33027L60.2889 1.99518L59.9178 2.33027ZM60.6601 2.66009L60.6601 2.16009L60.6601 2.66009ZM58.9688 1.27936L58.5977 1.61445L58.9688 1.27936ZM58.8493 1.17123L59.1294 0.757019L58.8493 1.17123ZM56.862 2.72085L57.9363 1.64658L57.2292 0.939469L56.1549 2.01375L56.862 2.72085ZM58.5977 1.61445L59.5467 2.66537L60.2889 1.99518L59.3399 0.94427L58.5977 1.61445ZM57.9363 1.64658C58.1067 1.47617 58.3729 1.45268 58.5693 1.58544L59.1294 0.757019C58.5391 0.357883 57.7409 0.427766 57.2292 0.939469L57.9363 1.64658ZM55.8015 2.16019L55.6601 2.16021L55.6602 3.16021L55.8016 3.16019L55.8015 2.16019ZM56.1549 2.01375C56.0612 2.1075 55.934 2.16017 55.8015 2.16019L55.8016 3.16019C56.1994 3.16013 56.5808 3.0021 56.862 2.72085L56.1549 2.01375ZM66.862 2.72073L67.9363 1.64645L67.2292 0.939347L66.1549 2.01362L66.862 2.72073ZM68.5977 1.61433L69.5467 2.66532L70.2889 1.99517L69.34 0.944181L68.5977 1.61433ZM67.9363 1.64645C68.1067 1.47605 68.3729 1.45256 68.5693 1.58531L69.1294 0.756879C68.539 0.357762 67.7409 0.427651 67.2292 0.939347L67.9363 1.64645ZM61.862 2.72073L62.9363 1.64645L62.2292 0.939347L61.1549 2.01362L61.862 2.72073ZM63.5977 1.61433L64.5467 2.66532L65.2889 1.99517L64.34 0.944181L63.5977 1.61433ZM62.9363 1.64645C63.1067 1.47605 63.3729 1.45256 63.5693 1.58531L64.1294 0.756879C63.539 0.357763 62.7409 0.427651 62.2292 0.939347L62.9363 1.64645ZM65.8015 2.16007L65.6601 2.16009L65.6602 3.16009L65.8016 3.16007L65.8015 2.16007ZM64.5467 2.66532C64.8311 2.98037 65.2358 3.16015 65.6602 3.16009L65.6601 2.16009C65.5186 2.16011 65.3837 2.10018 65.2889 1.99517L64.5467 2.66532ZM64.34 0.944181C64.292 0.891047 64.2221 0.81959 64.1294 0.756879L63.5693 1.58531C63.5668 1.58362 63.568 1.5841 63.5731 1.58887C63.5784 1.59378 63.5863 1.60161 63.5977 1.61433L64.34 0.944181ZM66.1549 2.01362C66.0612 2.10737 65.934 2.16005 65.8015 2.16007L65.8016 3.16007C66.1994 3.16001 66.5808 3.00198 66.862 2.72073L66.1549 2.01362ZM76.862 2.72073L77.9363 1.64645L77.2292 0.939347L76.1549 2.01362L76.862 2.72073ZM78.6022 1.60957L80.4033 3.05044L81.028 2.26958L79.2269 0.828704L78.6022 1.60957ZM77.9363 1.64645C78.1165 1.4663 78.4033 1.45042 78.6022 1.60957L79.2269 0.828704C78.6301 0.351235 77.7697 0.398888 77.2292 0.939347L77.9363 1.64645ZM71.862 2.72073L72.9363 1.64645L72.2292 0.939347L71.1549 2.01362L71.862 2.72073ZM73.5977 1.61433L74.5467 2.66532L75.2889 1.99517L74.34 0.944181L73.5977 1.61433ZM72.9363 1.64645C73.1067 1.47605 73.3729 1.45256 73.5693 1.58531L74.1294 0.756879C73.539 0.357763 72.7409 0.427651 72.2292 0.939347L72.9363 1.64645ZM75.8015 2.16007L75.6601 2.16009L75.6602 3.16009L75.8016 3.16007L75.8015 2.16007ZM74.5467 2.66532C74.8311 2.98037 75.2358 3.16015 75.6602 3.16009L75.6601 2.16009C75.5186 2.16011 75.3837 2.10018 75.2889 1.99517L74.5467 2.66532ZM74.34 0.944181C74.292 0.891047 74.2221 0.81959 74.1294 0.756879L73.5693 1.58531C73.5668 1.58362 73.5679 1.5841 73.5731 1.58887C73.5784 1.59378 73.5863 1.60161 73.5977 1.61433L74.34 0.944181ZM76.1549 2.01362C76.0612 2.10737 75.934 2.16005 75.8015 2.16007L75.8016 3.16007C76.1994 3.16001 76.5808 3.00198 76.862 2.72073L76.1549 2.01362ZM60.6602 3.16009L60.8016 3.16007L60.8015 2.16007L60.6601 2.16009L60.6602 3.16009ZM70.6602 3.16009L70.8016 3.16007L70.8015 2.16007L70.6601 2.16009L70.6602 3.16009ZM71.1549 2.01362C71.0612 2.10737 70.934 2.16005 70.8015 2.16007L70.8016 3.16007C71.1994 3.16001 71.5808 3.00198 71.862 2.72073L71.1549 2.01362ZM61.1549 2.01362C61.0612 2.10737 60.934 2.16005 60.8015 2.16007L60.8016 3.16007C61.1994 3.16001 61.5808 3.00198 61.862 2.72073L61.1549 2.01362ZM69.5467 2.66532C69.8311 2.98037 70.2358 3.16015 70.6602 3.16009L70.6601 2.16009C70.5186 2.16011 70.3837 2.10018 70.2889 1.99517L69.5467 2.66532ZM69.34 0.944181C69.292 0.891046 69.2221 0.81959 69.1294 0.756879L68.5693 1.58531C68.5668 1.58362 68.568 1.5841 68.5731 1.58887C68.5784 1.59378 68.5863 1.60161 68.5977 1.61433L69.34 0.944181ZM59.5467 2.66537C59.8311 2.98039 60.2358 3.16015 60.6602 3.16009L60.6601 2.16009C60.5186 2.16011 60.3837 2.10019 60.2889 1.99518L59.5467 2.66537ZM59.3399 0.94427C59.292 0.891151 59.2221 0.819716 59.1294 0.757019L58.5693 1.58544C58.5668 1.58375 58.568 1.58422 58.5731 1.58899C58.5784 1.5939 58.5863 1.60173 58.5977 1.61445L59.3399 0.94427Z" fill="#FF4848"/>
<path d="M81.6184 2.3673L81.2648 2.01375L81.2648 2.01375L81.6184 2.3673ZM82.6926 1.29302L82.3391 0.939469L82.3391 0.939469L82.6926 1.29302ZM80.9114 2.66019L80.9113 2.16019L80.9113 2.16019L80.9114 2.66019ZM80.7699 2.16021C80.4938 2.16025 80.27 2.38414 80.27 2.66029C80.2701 2.93643 80.494 3.16025 80.7701 3.16021L80.7699 2.16021ZM91.6184 2.36718L91.9719 2.72073L91.9719 2.72073L91.6184 2.36718ZM92.6926 1.2929L92.3391 0.939347L92.3391 0.939347L92.6926 1.2929ZM87.6926 1.2929L87.3391 0.939347L87.3391 0.939347L87.6926 1.2929ZM89.0787 1.27926L89.4498 0.944181L89.4498 0.944181L89.0787 1.27926ZM90.0276 2.33024L90.3988 1.99517L90.3988 1.99517L90.0276 2.33024ZM88.9592 1.1711L88.6791 1.58531L88.6791 1.58531L88.9592 1.1711ZM90.9114 2.66007L90.9113 2.16007L90.9113 2.16007L90.9114 2.66007ZM90.77 2.66009L90.7701 3.16009L90.7701 3.16009L90.77 2.66009ZM101.618 2.36718L101.972 2.72073L101.972 2.72073L101.618 2.36718ZM102.693 1.2929L102.339 0.939347L102.339 0.939347L102.693 1.2929ZM104.024 1.21914L103.712 1.60957L103.712 1.60957L104.024 1.21914ZM105.513 3.05044C105.729 3.22295 106.043 3.18799 106.216 2.97236C106.388 2.75673 106.354 2.44208 106.138 2.26958L105.513 3.05044ZM97.6926 1.2929L97.3391 0.939347L97.3391 0.939347L97.6926 1.2929ZM99.0787 1.27926L98.7076 1.61433L98.7076 1.61433L99.0787 1.27926ZM100.028 2.33024L100.399 1.99517L100.399 1.99517L100.028 2.33024ZM98.9592 1.1711L98.6791 1.58531L98.6791 1.58531L98.9592 1.1711ZM100.911 2.66007L100.911 2.16007L100.911 2.16007L100.911 2.66007ZM100.77 2.66009L100.77 3.16009L100.77 3.16009L100.77 2.66009ZM96.6184 2.36718L96.9719 2.72073L96.6184 2.36718ZM95.9114 2.66007L95.9113 2.16007L95.9114 2.66007ZM86.6184 2.36718L86.2648 2.01362L86.6184 2.36718ZM95.0276 2.33024L95.3988 1.99517L95.0276 2.33024ZM95.77 2.66009L95.7701 3.16009L95.77 2.66009ZM94.0787 1.27926L94.4498 0.944181L94.0787 1.27926ZM93.9592 1.1711L93.6791 1.58531L93.9592 1.1711ZM85.0277 2.33027L85.3987 1.99518L85.0277 2.33027ZM85.77 2.66009L85.7699 2.16009L85.77 2.66009ZM84.0787 1.27936L83.7076 1.61445L84.0787 1.27936ZM83.9592 1.17123L84.2393 0.757019L83.9592 1.17123ZM81.9719 2.72085L83.0462 1.64658L82.3391 0.939469L81.2648 2.01375L81.9719 2.72085ZM83.7076 1.61445L84.6566 2.66537L85.3987 1.99518L84.4498 0.94427L83.7076 1.61445ZM83.0462 1.64658C83.2166 1.47617 83.4828 1.45268 83.6792 1.58544L84.2393 0.757019C83.6489 0.357883 82.8508 0.427766 82.3391 0.939469L83.0462 1.64658ZM80.9113 2.16019L80.7699 2.16021L80.7701 3.16021L80.9115 3.16019L80.9113 2.16019ZM81.2648 2.01375C81.1711 2.1075 81.0439 2.16017 80.9113 2.16019L80.9115 3.16019C81.3092 3.16013 81.6907 3.0021 81.9719 2.72085L81.2648 2.01375ZM91.9719 2.72073L93.0462 1.64645L92.3391 0.939347L91.2648 2.01362L91.9719 2.72073ZM93.7076 1.61433L94.6565 2.66532L95.3988 1.99517L94.4498 0.944181L93.7076 1.61433ZM93.0462 1.64645C93.2166 1.47605 93.4828 1.45256 93.6791 1.58531L94.2392 0.756879C93.6489 0.357762 92.8508 0.427651 92.3391 0.939347L93.0462 1.64645ZM86.9719 2.72073L88.0462 1.64645L87.3391 0.939347L86.2648 2.01362L86.9719 2.72073ZM88.7076 1.61433L89.6565 2.66532L90.3988 1.99517L89.4498 0.944181L88.7076 1.61433ZM88.0462 1.64645C88.2166 1.47605 88.4828 1.45256 88.6791 1.58531L89.2392 0.756879C88.6489 0.357763 87.8508 0.427651 87.3391 0.939347L88.0462 1.64645ZM90.9113 2.16007L90.7699 2.16009L90.7701 3.16009L90.9115 3.16007L90.9113 2.16007ZM89.6565 2.66532C89.941 2.98037 90.3456 3.16015 90.7701 3.16009L90.7699 2.16009C90.6285 2.16011 90.4936 2.10018 90.3988 1.99517L89.6565 2.66532ZM89.4498 0.944181C89.4019 0.891047 89.332 0.81959 89.2392 0.756879L88.6791 1.58531C88.6767 1.58362 88.6778 1.5841 88.683 1.58887C88.6883 1.59378 88.6961 1.60161 88.7076 1.61433L89.4498 0.944181ZM91.2648 2.01362C91.1711 2.10737 91.0439 2.16005 90.9113 2.16007L90.9115 3.16007C91.3092 3.16001 91.6907 3.00198 91.9719 2.72073L91.2648 2.01362ZM101.972 2.72073L103.046 1.64645L102.339 0.939347L101.265 2.01362L101.972 2.72073ZM103.712 1.60957L105.513 3.05044L106.138 2.26958L104.337 0.828704L103.712 1.60957ZM103.046 1.64645C103.226 1.4663 103.513 1.45042 103.712 1.60957L104.337 0.828704C103.74 0.351235 102.88 0.398888 102.339 0.939347L103.046 1.64645ZM96.9719 2.72073L98.0462 1.64645L97.3391 0.939347L96.2648 2.01362L96.9719 2.72073ZM98.7076 1.61433L99.6565 2.66532L100.399 1.99517L99.4498 0.944181L98.7076 1.61433ZM98.0462 1.64645C98.2166 1.47605 98.4828 1.45256 98.6791 1.58531L99.2392 0.756879C98.6489 0.357763 97.8508 0.427651 97.3391 0.939347L98.0462 1.64645ZM100.911 2.16007L100.77 2.16009L100.77 3.16009L100.911 3.16007L100.911 2.16007ZM99.6565 2.66532C99.941 2.98037 100.346 3.16015 100.77 3.16009L100.77 2.16009C100.628 2.16011 100.494 2.10018 100.399 1.99517L99.6565 2.66532ZM99.4498 0.944181C99.4019 0.891047 99.332 0.81959 99.2392 0.756879L98.6791 1.58531C98.6766 1.58362 98.6778 1.5841 98.683 1.58887C98.6883 1.59378 98.6961 1.60161 98.7076 1.61433L99.4498 0.944181ZM101.265 2.01362C101.171 2.10737 101.044 2.16005 100.911 2.16007L100.911 3.16007C101.309 3.16001 101.691 3.00198 101.972 2.72073L101.265 2.01362ZM85.7701 3.16009L85.9115 3.16007L85.9113 2.16007L85.7699 2.16009L85.7701 3.16009ZM95.7701 3.16009L95.9115 3.16007L95.9113 2.16007L95.7699 2.16009L95.7701 3.16009ZM96.2648 2.01362C96.1711 2.10737 96.0439 2.16005 95.9113 2.16007L95.9115 3.16007C96.3092 3.16001 96.6907 3.00198 96.9719 2.72073L96.2648 2.01362ZM86.2648 2.01362C86.1711 2.10737 86.0439 2.16005 85.9113 2.16007L85.9115 3.16007C86.3092 3.16001 86.6907 3.00198 86.9719 2.72073L86.2648 2.01362ZM94.6565 2.66532C94.941 2.98037 95.3456 3.16015 95.7701 3.16009L95.7699 2.16009C95.6285 2.16011 95.4936 2.10018 95.3988 1.99517L94.6565 2.66532ZM94.4498 0.944181C94.4019 0.891046 94.332 0.81959 94.2392 0.756879L93.6791 1.58531C93.6767 1.58362 93.6778 1.5841 93.683 1.58887C93.6883 1.59378 93.6961 1.60161 93.7076 1.61433L94.4498 0.944181ZM84.6566 2.66537C84.941 2.98039 85.3456 3.16015 85.7701 3.16009L85.7699 2.16009C85.6284 2.16011 85.4936 2.10019 85.3987 1.99518L84.6566 2.66537ZM84.4498 0.94427C84.4018 0.891151 84.332 0.819716 84.2393 0.757019L83.6792 1.58544C83.6767 1.58375 83.6778 1.58422 83.683 1.58899C83.6883 1.5939 83.6961 1.60173 83.7076 1.61445L84.4498 0.94427Z" fill="#FF4848"/>
<path d="M106.728 2.3673L106.375 2.01375L106.375 2.01375L106.728 2.3673ZM107.802 1.29302L107.449 0.939469L107.449 0.939469L107.802 1.29302ZM106.021 2.66019L106.021 2.16019L106.021 2.16019L106.021 2.66019ZM105.88 2.16021C105.604 2.16025 105.38 2.38414 105.38 2.66029C105.38 2.93643 105.604 3.16025 105.88 3.16021L105.88 2.16021ZM116.728 2.36718L117.082 2.72073L117.082 2.72073L116.728 2.36718ZM117.802 1.2929L117.449 0.939347L117.449 0.939347L117.802 1.2929ZM112.802 1.2929L112.449 0.939347L112.449 0.939347L112.802 1.2929ZM114.189 1.27926L114.56 0.944181L114.56 0.944181L114.189 1.27926ZM115.138 2.33024L115.509 1.99517L115.509 1.99517L115.138 2.33024ZM114.069 1.1711L113.789 1.58531L113.789 1.58531L114.069 1.1711ZM116.021 2.66007L116.021 2.16007L116.021 2.16007L116.021 2.66007ZM115.88 2.66009L115.88 3.16009L115.88 3.16009L115.88 2.66009ZM126.728 2.36718L127.082 2.72073L127.082 2.72073L126.728 2.36718ZM127.802 1.2929L127.449 0.939347L127.449 0.939347L127.802 1.2929ZM129.134 1.21914L128.822 1.60957L128.822 1.60957L129.134 1.21914ZM130.623 3.05044C130.839 3.22295 131.153 3.18799 131.326 2.97236C131.498 2.75673 131.463 2.44208 131.248 2.26958L130.623 3.05044ZM122.802 1.2929L122.449 0.939347L122.449 0.939347L122.802 1.2929ZM124.189 1.27926L123.817 1.61433L123.817 1.61433L124.189 1.27926ZM125.138 2.33024L125.509 1.99517L125.509 1.99517L125.138 2.33024ZM124.069 1.1711L123.789 1.58531L123.789 1.58531L124.069 1.1711ZM126.021 2.66007L126.021 2.16007L126.021 2.16007L126.021 2.66007ZM125.88 2.66009L125.88 3.16009L125.88 3.16009L125.88 2.66009ZM121.728 2.36718L122.082 2.72073L121.728 2.36718ZM121.021 2.66007L121.021 2.16007L121.021 2.66007ZM111.728 2.36718L111.375 2.01362L111.728 2.36718ZM120.138 2.33024L120.509 1.99517L120.138 2.33024ZM120.88 2.66009L120.88 3.16009L120.88 2.66009ZM119.189 1.27926L119.56 0.944181L119.189 1.27926ZM119.069 1.1711L118.789 1.58531L119.069 1.1711ZM110.138 2.33027L110.509 1.99518L110.138 2.33027ZM110.88 2.66009L110.88 2.16009L110.88 2.66009ZM109.189 1.27936L108.817 1.61445L109.189 1.27936ZM109.069 1.17123L109.349 0.757019L109.069 1.17123ZM107.082 2.72085L108.156 1.64658L107.449 0.939469L106.375 2.01375L107.082 2.72085ZM108.817 1.61445L109.766 2.66537L110.509 1.99518L109.56 0.94427L108.817 1.61445ZM108.156 1.64658C108.326 1.47617 108.593 1.45268 108.789 1.58544L109.349 0.757019C108.759 0.357883 107.961 0.427766 107.449 0.939469L108.156 1.64658ZM106.021 2.16019L105.88 2.16021L105.88 3.16021L106.021 3.16019L106.021 2.16019ZM106.375 2.01375C106.281 2.1075 106.154 2.16017 106.021 2.16019L106.021 3.16019C106.419 3.16013 106.801 3.0021 107.082 2.72085L106.375 2.01375ZM117.082 2.72073L118.156 1.64645L117.449 0.939347L116.375 2.01362L117.082 2.72073ZM118.817 1.61433L119.766 2.66532L120.509 1.99517L119.56 0.944181L118.817 1.61433ZM118.156 1.64645C118.326 1.47605 118.593 1.45256 118.789 1.58531L119.349 0.756879C118.759 0.357762 117.961 0.427651 117.449 0.939347L118.156 1.64645ZM112.082 2.72073L113.156 1.64645L112.449 0.939347L111.375 2.01362L112.082 2.72073ZM113.817 1.61433L114.766 2.66532L115.509 1.99517L114.56 0.944181L113.817 1.61433ZM113.156 1.64645C113.326 1.47605 113.593 1.45256 113.789 1.58531L114.349 0.756879C113.759 0.357763 112.961 0.427651 112.449 0.939347L113.156 1.64645ZM116.021 2.16007L115.88 2.16009L115.88 3.16009L116.021 3.16007L116.021 2.16007ZM114.766 2.66532C115.051 2.98037 115.455 3.16015 115.88 3.16009L115.88 2.16009C115.738 2.16011 115.603 2.10018 115.509 1.99517L114.766 2.66532ZM114.56 0.944181C114.512 0.891047 114.442 0.81959 114.349 0.756879L113.789 1.58531C113.787 1.58362 113.788 1.5841 113.793 1.58887C113.798 1.59378 113.806 1.60161 113.817 1.61433L114.56 0.944181ZM116.375 2.01362C116.281 2.10737 116.154 2.16005 116.021 2.16007L116.021 3.16007C116.419 3.16001 116.801 3.00198 117.082 2.72073L116.375 2.01362ZM127.082 2.72073L128.156 1.64645L127.449 0.939347L126.375 2.01362L127.082 2.72073ZM128.822 1.60957L130.623 3.05044L131.248 2.26958L129.447 0.828704L128.822 1.60957ZM128.156 1.64645C128.336 1.4663 128.623 1.45042 128.822 1.60957L129.447 0.828704C128.85 0.351235 127.989 0.398888 127.449 0.939347L128.156 1.64645ZM122.082 2.72073L123.156 1.64645L122.449 0.939347L121.375 2.01362L122.082 2.72073ZM123.817 1.61433L124.766 2.66532L125.509 1.99517L124.56 0.944181L123.817 1.61433ZM123.156 1.64645C123.326 1.47605 123.593 1.45256 123.789 1.58531L124.349 0.756879C123.759 0.357763 122.961 0.427651 122.449 0.939347L123.156 1.64645ZM126.021 2.16007L125.88 2.16009L125.88 3.16009L126.021 3.16007L126.021 2.16007ZM124.766 2.66532C125.051 2.98037 125.455 3.16015 125.88 3.16009L125.88 2.16009C125.738 2.16011 125.603 2.10018 125.509 1.99517L124.766 2.66532ZM124.56 0.944181C124.512 0.891047 124.442 0.81959 124.349 0.756879L123.789 1.58531C123.787 1.58362 123.788 1.5841 123.793 1.58887C123.798 1.59378 123.806 1.60161 123.817 1.61433L124.56 0.944181ZM126.375 2.01362C126.281 2.10737 126.154 2.16005 126.021 2.16007L126.021 3.16007C126.419 3.16001 126.801 3.00198 127.082 2.72073L126.375 2.01362ZM110.88 3.16009L111.021 3.16007L111.021 2.16007L110.88 2.16009L110.88 3.16009ZM120.88 3.16009L121.021 3.16007L121.021 2.16007L120.88 2.16009L120.88 3.16009ZM121.375 2.01362C121.281 2.10737 121.154 2.16005 121.021 2.16007L121.021 3.16007C121.419 3.16001 121.801 3.00198 122.082 2.72073L121.375 2.01362ZM111.375 2.01362C111.281 2.10737 111.154 2.16005 111.021 2.16007L111.021 3.16007C111.419 3.16001 111.801 3.00198 112.082 2.72073L111.375 2.01362ZM119.766 2.66532C120.051 2.98037 120.455 3.16015 120.88 3.16009L120.88 2.16009C120.738 2.16011 120.603 2.10018 120.509 1.99517L119.766 2.66532ZM119.56 0.944181C119.512 0.891046 119.442 0.81959 119.349 0.756879L118.789 1.58531C118.787 1.58362 118.788 1.5841 118.793 1.58887C118.798 1.59378 118.806 1.60161 118.817 1.61433L119.56 0.944181ZM109.766 2.66537C110.051 2.98039 110.455 3.16015 110.88 3.16009L110.88 2.16009C110.738 2.16011 110.603 2.10019 110.509 1.99518L109.766 2.66537ZM109.56 0.94427C109.512 0.891151 109.442 0.819716 109.349 0.757019L108.789 1.58544C108.787 1.58375 108.788 1.58422 108.793 1.58899C108.798 1.5939 108.806 1.60173 108.817 1.61445L109.56 0.94427Z" fill="#FF4848"/>
</svg>
