<svg width="76" height="59" viewBox="0 0 76 59" fill="none" xmlns="http://www.w3.org/2000/svg">
<path d="M65.3214 0H0V37.4018H65.3214V0Z" transform="translate(5.53125 4.47778)" fill="white"/>
<path d="M67.4286 0H8.42857C6.19317 0 4.04933 0.888007 2.46867 2.46867C0.888007 4.04933 0 6.19318 0 8.42857V50.5714C0 52.8068 0.888007 54.9507 2.46867 56.5313C4.04933 58.112 6.19317 59 8.42857 59H67.4286C69.664 59 71.8078 58.112 73.3885 56.5313C74.9691 54.9507 75.8571 52.8068 75.8571 50.5714V8.42857C75.8571 6.19318 74.9691 4.04933 73.3885 2.46867C71.8078 0.888007 69.664 0 67.4286 0ZM67.4286 16.8571L37.9286 37.9286L8.42857 16.8571V8.42857L37.9286 29.5L67.4286 8.42857V16.8571Z" fill="#4C9AE8"/>
</svg>
