<svg width="61" height="59" viewBox="0 0 61 59" fill="none" xmlns="http://www.w3.org/2000/svg">
<path d="M13.4804 0H0V38.1764H13.4804V0Z" transform="translate(0 20.8237)" fill="#577FA8"/>
<path d="M6.74021 13.8823C10.4627 13.8823 13.4804 10.7747 13.4804 6.94116C13.4804 3.10766 10.4627 0 6.74021 0C3.01769 0 0 3.10766 0 6.94116C0 10.7747 3.01769 13.8823 6.74021 13.8823Z" fill="#577FA8"/>
<path d="M25.2758 0C23.0042 0.00638752 20.7634 0.541444 18.7208 1.56518C16.6783 2.58891 14.8868 4.07484 13.4804 5.91189V2.60294H0V40.7793H13.4804V16.4853C13.4804 14.6444 14.1905 12.8788 15.4546 11.5771C16.7186 10.2754 18.433 9.5441 20.2206 9.5441C22.0082 9.5441 23.7226 10.2754 24.9867 11.5771C26.2507 12.8788 26.9608 14.6444 26.9608 16.4853V40.7793H40.4412V15.6176C40.4412 11.4756 38.8435 7.50317 35.9994 4.5743C33.1553 1.64542 29.2979 0 25.2758 0Z" transform="translate(20.2207 18.2205)" fill="#577FA8"/>
</svg>
