<svg width="59" height="59" viewBox="0 0 59 59" fill="none" xmlns="http://www.w3.org/2000/svg">
<path d="M29.4963 0C13.2086 0 0 13.5422 0 30.2477C0 43.6091 8.45175 54.9444 20.178 58.9475C21.653 59.2262 22.1914 58.2923 22.1914 57.4901C22.1914 56.7709 22.1656 54.8691 22.1508 52.3459C13.9461 54.1724 12.213 48.2901 12.213 48.2901C10.8744 44.7953 8.9385 43.8651 8.9385 43.8651C6.25769 41.9897 9.13762 42.0274 9.13762 42.0274C12.0987 42.242 13.6548 45.1455 13.6548 45.1455C16.2877 49.7663 20.5615 48.4332 22.243 47.6574C22.5085 45.7029 23.2718 44.3698 24.1162 43.6128C17.5672 42.8483 10.679 40.2536 10.679 28.666C10.679 25.3633 11.8295 22.6632 13.7175 20.5467C13.4114 19.7822 12.4011 16.7055 14.0051 12.5442C14.0051 12.5442 16.4831 11.7308 22.1176 15.6435C24.4703 14.9732 26.9925 14.638 29.5037 14.6267C32.0075 14.6418 34.5334 14.9732 36.8897 15.6473C42.5206 11.7345 44.9949 12.548 44.9949 12.548C46.6026 16.713 45.5922 19.786 45.2899 20.5505C47.1816 22.6669 48.321 25.3671 48.321 28.6698C48.321 40.2875 41.4254 42.8446 34.8542 43.594C35.9126 44.5279 36.8566 46.3732 36.8566 49.1939C36.8566 53.2384 36.8197 56.4997 36.8197 57.4901C36.8197 58.2998 37.3507 59.2413 38.8478 58.9438C50.5556 54.9369 59 43.6053 59 30.2477C59 13.5422 45.7914 0 29.4963 0Z" fill="#5C6BC0"/>
</svg>
