<svg width="27" height="4" viewBox="0 0 27 4" fill="none" xmlns="http://www.w3.org/2000/svg">
<path d="M1.61836 2.3673L1.26481 2.01375L1.61836 2.3673ZM2.69264 1.29302L2.33908 0.939469L2.33908 0.939469L2.69264 1.29302ZM0.911398 2.66019L0.911325 2.16019H0.911325L0.911398 2.66019ZM0.769946 2.16021C0.493804 2.16025 0.269979 2.38414 0.27002 2.66029C0.27006 2.93643 0.493951 3.16025 0.770093 3.16021L0.769946 2.16021ZM11.6184 2.36718L11.9719 2.72073V2.72073L11.6184 2.36718ZM12.6926 1.2929L12.3391 0.939347V0.939347L12.6926 1.2929ZM7.69264 1.2929L7.33908 0.939347V0.939347L7.69264 1.2929ZM9.07872 1.27926L9.44983 0.944181V0.944181L9.07872 1.27926ZM10.0276 2.33024L10.3988 1.99517V1.99517L10.0276 2.33024ZM8.95919 1.1711L8.67915 1.58531V1.58531L8.95919 1.1711ZM10.9114 2.66007L10.9113 2.16007L10.9114 2.66007ZM10.77 2.66009L10.7701 3.16009L10.77 2.66009ZM21.6184 2.36718L21.9719 2.72073V2.72073L21.6184 2.36718ZM22.6926 1.2929L22.3391 0.939347V0.939347L22.6926 1.2929ZM24.0244 1.21914L23.7121 1.60957V1.60957L24.0244 1.21914ZM25.5132 3.05044C25.7288 3.22295 26.0435 3.18799 26.216 2.97236C26.3885 2.75673 26.3535 2.44208 26.1379 2.26958L25.5132 3.05044ZM17.6926 1.2929L17.3391 0.939347V0.939347L17.6926 1.2929ZM19.0787 1.27926L18.7076 1.61433L19.0787 1.27926ZM20.0276 2.33024L20.3988 1.99517V1.99517L20.0276 2.33024ZM18.9592 1.1711L18.6791 1.58531V1.58531L18.9592 1.1711ZM20.9114 2.66007L20.9113 2.16007L20.9114 2.66007ZM20.77 2.66009L20.7701 3.16009L20.77 2.66009ZM16.6184 2.36718L16.9719 2.72073L16.6184 2.36718ZM15.9114 2.66007L15.9113 2.16007L15.9114 2.66007ZM6.61836 2.36718L6.26481 2.01362L6.61836 2.36718ZM15.0276 2.33024L15.3988 1.99517L15.0276 2.33024ZM15.77 2.66009L15.7701 3.16009L15.77 2.66009ZM14.0787 1.27926L14.4498 0.944181L14.0787 1.27926ZM13.9592 1.1711L13.6791 1.58531L13.9592 1.1711ZM5.02765 2.33027L5.39875 1.99518L5.02765 2.33027ZM5.76999 2.66009L5.76992 2.16009L5.76999 2.66009ZM4.07871 1.27936L3.70761 1.61445L4.07871 1.27936ZM3.95921 1.17123L4.23926 0.757019L3.95921 1.17123ZM1.97191 2.72085L3.04619 1.64658L2.33908 0.939469L1.26481 2.01375L1.97191 2.72085ZM3.70761 1.61445L4.65655 2.66537L5.39875 1.99518L4.4498 0.94427L3.70761 1.61445ZM3.04619 1.64658C3.21659 1.47617 3.48279 1.45268 3.67916 1.58544L4.23926 0.757019C3.64892 0.357882 2.85079 0.427766 2.33908 0.939469L3.04619 1.64658ZM0.911325 2.16019L0.769946 2.16021L0.770093 3.16021L0.911472 3.16019L0.911325 2.16019ZM1.26481 2.01375C1.17105 2.1075 1.04391 2.16017 0.911325 2.16019L0.911472 3.16019C1.30922 3.16013 1.69066 3.0021 1.97191 2.72085L1.26481 2.01375ZM11.9719 2.72073L13.0462 1.64645L12.3391 0.939347L11.2648 2.01362L11.9719 2.72073ZM13.7076 1.61433L14.6565 2.66532L15.3988 1.99517L14.4498 0.944181L13.7076 1.61433ZM13.0462 1.64645C13.2166 1.47605 13.4828 1.45256 13.6791 1.58531L14.2392 0.756879C13.6489 0.357763 12.8508 0.427651 12.3391 0.939347L13.0462 1.64645ZM6.97191 2.72073L8.04619 1.64645L7.33908 0.939347L6.26481 2.01362L6.97191 2.72073ZM8.70761 1.61433L9.65654 2.66532L10.3988 1.99517L9.44983 0.944181L8.70761 1.61433ZM8.04619 1.64645C8.21659 1.47605 8.48279 1.45256 8.67915 1.58531L9.23923 0.756879C8.64889 0.357763 7.85078 0.427651 7.33908 0.939347L8.04619 1.64645ZM10.9113 2.16007L10.7699 2.16009L10.7701 3.16009L10.9115 3.16007L10.9113 2.16007ZM9.65654 2.66532C9.941 2.98037 10.3456 3.16015 10.7701 3.16009L10.7699 2.16009C10.6285 2.16011 10.4936 2.10018 10.3988 1.99517L9.65654 2.66532ZM9.44983 0.944181C9.40186 0.891047 9.33199 0.81959 9.23923 0.756879L8.67915 1.58531C8.67665 1.58362 8.67781 1.5841 8.68298 1.58887C8.6883 1.59378 8.69612 1.60161 8.70761 1.61433L9.44983 0.944181ZM11.2648 2.01362C11.1711 2.10737 11.0439 2.16005 10.9113 2.16007L10.9115 3.16007C11.3092 3.16001 11.6907 3.00198 11.9719 2.72073L11.2648 2.01362ZM21.9719 2.72073L23.0462 1.64645L22.3391 0.939347L21.2648 2.01362L21.9719 2.72073ZM23.7121 1.60957L25.5132 3.05044L26.1379 2.26958L24.3368 0.828704L23.7121 1.60957ZM23.0462 1.64645C23.2263 1.4663 23.5131 1.45042 23.7121 1.60957L24.3368 0.828704C23.7399 0.351235 22.8795 0.398888 22.3391 0.939347L23.0462 1.64645ZM16.9719 2.72073L18.0462 1.64645L17.3391 0.939347L16.2648 2.01362L16.9719 2.72073ZM18.7076 1.61433L19.6565 2.66532L20.3988 1.99517L19.4498 0.944181L18.7076 1.61433ZM18.0462 1.64645C18.2166 1.47605 18.4828 1.45256 18.6791 1.58531L19.2392 0.756879C18.6489 0.357763 17.8508 0.427651 17.3391 0.939347L18.0462 1.64645ZM20.9113 2.16007L20.7699 2.16009L20.7701 3.16009L20.9115 3.16007L20.9113 2.16007ZM19.6565 2.66532C19.941 2.98037 20.3456 3.16015 20.7701 3.16009L20.7699 2.16009C20.6285 2.16011 20.4936 2.10018 20.3988 1.99517L19.6565 2.66532ZM19.4498 0.944181C19.4019 0.891047 19.332 0.81959 19.2392 0.756879L18.6791 1.58531C18.6766 1.58362 18.6778 1.5841 18.683 1.58887C18.6883 1.59378 18.6961 1.60161 18.7076 1.61433L19.4498 0.944181ZM21.2648 2.01362C21.1711 2.10737 21.0439 2.16005 20.9113 2.16007L20.9115 3.16007C21.3092 3.16001 21.6907 3.00198 21.9719 2.72073L21.2648 2.01362ZM5.77007 3.16009L5.91147 3.16007L5.91132 2.16007L5.76992 2.16009L5.77007 3.16009ZM15.7701 3.16009L15.9115 3.16007L15.9113 2.16007L15.7699 2.16009L15.7701 3.16009ZM16.2648 2.01362C16.1711 2.10737 16.0439 2.16005 15.9113 2.16007L15.9115 3.16007C16.3092 3.16001 16.6907 3.00198 16.9719 2.72073L16.2648 2.01362ZM6.26481 2.01362C6.17106 2.10737 6.04391 2.16005 5.91132 2.16007L5.91147 3.16007C6.30922 3.16001 6.69066 3.00198 6.97191 2.72073L6.26481 2.01362ZM14.6565 2.66532C14.941 2.98037 15.3456 3.16015 15.7701 3.16009L15.7699 2.16009C15.6285 2.16011 15.4936 2.10018 15.3988 1.99517L14.6565 2.66532ZM14.4498 0.944181C14.4019 0.891046 14.332 0.81959 14.2392 0.756879L13.6791 1.58531C13.6767 1.58362 13.6778 1.5841 13.683 1.58887C13.6883 1.59378 13.6961 1.60161 13.7076 1.61433L14.4498 0.944181ZM4.65655 2.66537C4.94101 2.98039 5.34562 3.16015 5.77007 3.16009L5.76992 2.16009C5.62844 2.16011 5.49357 2.10019 5.39875 1.99518L4.65655 2.66537ZM4.4498 0.94427C4.40184 0.891151 4.33199 0.819716 4.23926 0.757019L3.67916 1.58544C3.67666 1.58375 3.67782 1.58422 3.68299 1.58899C3.68831 1.5939 3.69612 1.60173 3.70761 1.61445L4.4498 0.94427Z" fill="#FF4848"/>
</svg>
